<svg width="184" height="226" viewBox="0 0 184 226" fill="none" xmlns="http://www.w3.org/2000/svg">
<g filter="url(#filter0_d)">
<path d="M116.85 106.263V85.45C116.85 76.45 117.112 68.275 117.637 60.925C118.237 53.5 119.512 46.6375 121.462 40.3375C115.537 39.4375 109.462 38.3875 103.237 37.1875C97.0124 35.9125 90.8999 34.7125 84.8999 33.5875C78.9749 32.4625 73.3124 31.525 67.9124 30.775C62.5874 29.95 57.7874 29.5375 53.5124 29.5375C47.7374 29.5375 42.9374 30.025 39.1124 31C35.2874 31.9 32.2124 33.1375 29.8874 34.7125C27.5624 36.2875 25.9124 38.125 24.9374 40.225C24.0374 42.25 23.5874 44.425 23.5874 46.75C23.5874 49.075 24.1124 51.2125 25.1624 53.1625C26.2874 55.1125 27.8624 56.8375 29.8874 58.3375C31.9124 59.7625 34.3124 60.8875 37.0874 61.7125C39.9374 62.5375 43.0874 62.95 46.5374 62.95C50.3624 62.95 53.7374 62.5375 56.6624 61.7125C59.6624 60.8125 62.2124 59.8375 64.3124 58.7875C66.7874 57.5875 68.9624 56.2 70.8374 54.625L73.0874 59.4625C70.7624 61.1875 68.2124 62.725 65.4374 64.075C63.0374 65.275 60.2249 66.3625 56.9999 67.3375C53.8499 68.2375 50.3624 68.6875 46.5374 68.6875C41.5124 68.6875 37.0499 68.0125 33.1499 66.6625C29.3249 65.3125 26.0999 63.5125 23.4749 61.2625C20.8499 58.9375 18.8624 56.2375 17.5124 53.1625C16.1624 50.0875 15.4874 46.825 15.4874 43.375C15.4874 39.7 16.1249 36.1375 17.3999 32.6875C18.5999 29.2375 20.6624 26.1625 23.5874 23.4625C26.4374 20.7625 30.2249 18.625 34.9499 17.05C39.6749 15.4 45.4874 14.575 52.3874 14.575C58.7624 14.575 65.1374 15.1 71.5124 16.15C77.9624 17.125 84.2999 18.3625 90.5249 19.8625C96.8249 21.2875 102.937 22.8625 108.862 24.5875C114.862 26.2375 120.6 27.7375 126.075 29.0875C129.3 23.1625 133.312 18.4375 138.112 14.9125C142.912 11.3125 148.125 9.51253 153.75 9.51253C156.15 9.51253 158.287 9.92503 160.162 10.75C162.037 11.5 163.612 12.5125 164.887 13.7875C166.162 15.0625 167.1 16.5625 167.7 18.2875C168.375 19.9375 168.712 21.7 168.712 23.575C168.712 26.725 167.962 29.4625 166.462 31.7875C165.037 34.0375 163.05 35.95 160.5 37.525C157.95 39.025 154.95 40.15 151.5 40.9C148.05 41.575 144.337 41.9125 140.362 41.9125C139.462 41.9125 138.525 41.9125 137.55 41.9125C136.65 41.9125 135.75 41.8375 134.85 41.6875C134.25 45.4375 133.762 49.6375 133.387 54.2875C133.087 58.8625 132.937 64.0375 132.937 69.8125V106.263H148.012L145.65 113.125H132.937V140.8C132.937 147.1 132.862 152.613 132.712 157.338C132.562 161.988 132.15 166.15 131.475 169.825C130.8 173.425 129.787 176.688 128.437 179.613C127.087 182.463 125.212 185.275 122.812 188.05C118.687 192.775 112.95 196.638 105.6 199.638C98.2499 202.638 89.3249 204.138 78.8249 204.138C72.3749 204.138 66.2249 203.238 60.3749 201.438C54.5249 199.638 49.3874 197.125 44.9624 193.9C40.5374 190.675 37.0124 186.813 34.3874 182.313C31.7624 177.813 30.4499 172.825 30.4499 167.35C30.4499 163.3 31.0874 159.663 32.3624 156.438C33.7124 153.213 35.4374 150.363 37.5374 147.888C39.6374 145.338 41.9249 143.163 44.3999 141.363C46.9499 139.563 49.4249 138.063 51.8249 136.863C54.2249 135.663 56.3999 134.725 58.3499 134.05C60.2999 133.375 61.7624 132.925 62.7374 132.7L64.9874 137.313C63.2624 138.213 61.3124 139.45 59.1374 141.025C57.0374 142.525 55.0499 144.475 53.1749 146.875C51.2999 149.2 49.7249 152.05 48.4499 155.425C47.1749 158.8 46.5374 162.775 46.5374 167.35C46.5374 172.225 47.3624 176.613 49.0124 180.513C50.6624 184.338 52.9499 187.6 55.8749 190.3C58.8749 192.925 62.3999 194.95 66.4499 196.375C70.5749 197.725 75.0749 198.4 79.9499 198.4C85.4249 198.4 90.4124 197.65 94.9124 196.15C99.4874 194.65 103.387 192.138 106.612 188.613C109.837 185.088 112.35 180.4 114.15 174.55C115.95 168.7 116.85 161.425 116.85 152.725V113.125H95.0249L97.2749 106.263H116.85ZM153.75 15.7C150.375 15.7 147.262 16.9375 144.412 19.4125C141.562 21.8125 139.2 25.9375 137.325 31.7875C139.65 32.1625 141.9 32.4625 144.075 32.6875C146.25 32.9125 148.312 33.025 150.262 33.025C152.287 33.025 154.012 32.7625 155.437 32.2375C156.937 31.6375 158.137 30.8875 159.037 29.9875C159.937 29.0875 160.612 28.075 161.062 26.95C161.512 25.825 161.737 24.7 161.737 23.575C161.737 21.4 160.987 19.5625 159.487 18.0625C157.987 16.4875 156.075 15.7 153.75 15.7Z" fill="white"/>
<path d="M116.85 106.263V109.263H119.85V106.263H116.85ZM117.637 60.925L114.647 60.6834L114.646 60.6973L114.645 60.7113L117.637 60.925ZM121.462 40.3375L124.328 41.2246L125.359 37.895L121.913 37.3716L121.462 40.3375ZM103.237 37.1875L102.635 40.1265L102.653 40.13L102.67 40.1333L103.237 37.1875ZM84.8999 33.5875L84.3403 36.5349L84.3471 36.5361L84.8999 33.5875ZM67.9124 30.775L67.4531 33.7397L67.4764 33.7433L67.4997 33.7465L67.9124 30.775ZM39.1124 31L39.7996 33.9203L39.8266 33.9139L39.8535 33.9071L39.1124 31ZM29.8874 34.7125L28.2049 32.2288L29.8874 34.7125ZM24.9374 40.225L22.2164 38.9617L22.206 38.9841L22.196 39.0066L24.9374 40.225ZM25.1624 53.1625L22.521 54.5848L22.5419 54.6236L22.5639 54.6617L25.1624 53.1625ZM29.8874 58.3375L28.1018 60.7482L28.1311 60.7699L28.161 60.791L29.8874 58.3375ZM37.0874 61.7125L36.2325 64.5881L36.2429 64.5912L36.2533 64.5942L37.0874 61.7125ZM56.6624 61.7125L57.4768 64.5999L57.5007 64.5931L57.5245 64.586L56.6624 61.7125ZM64.3124 58.7875L63.0036 56.0881L62.9872 56.0961L62.9708 56.1043L64.3124 58.7875ZM70.8374 54.625L73.5576 53.3598L71.9062 49.8093L68.9079 52.3279L70.8374 54.625ZM73.0874 59.4625L74.875 61.8718L76.8389 60.4147L75.8076 58.1973L73.0874 59.4625ZM65.4374 64.075L64.125 61.3773L64.1104 61.3845L64.0958 61.3918L65.4374 64.075ZM56.9999 67.3375L57.8241 70.2221L57.8462 70.2158L57.8681 70.2092L56.9999 67.3375ZM33.1499 66.6625L32.1515 69.4915L32.16 69.4945L32.1686 69.4975L33.1499 66.6625ZM23.4749 61.2625L21.4858 63.5083L21.5041 63.5245L21.5226 63.5403L23.4749 61.2625ZM17.3999 32.6875L20.2139 33.7275L20.2239 33.7004L20.2334 33.6731L17.3999 32.6875ZM23.5874 23.4625L25.6223 25.6669L25.6366 25.6538L25.6507 25.6404L23.5874 23.4625ZM34.9499 17.05L35.8986 19.8961L35.9189 19.8893L35.939 19.8823L34.9499 17.05ZM71.5124 16.15L71.0249 19.1101L71.0445 19.1134L71.0641 19.1163L71.5124 16.15ZM90.5249 19.8625L89.8222 22.7791L89.8426 22.784L89.8631 22.7886L90.5249 19.8625ZM108.862 24.5875L108.024 27.4679L108.045 27.4742L108.067 27.4801L108.862 24.5875ZM126.075 29.0875L125.357 32.0003L127.604 32.5543L128.71 30.5218L126.075 29.0875ZM138.112 14.9125L139.888 17.3305L139.9 17.3216L139.912 17.3125L138.112 14.9125ZM160.162 10.75L158.954 13.496L159.001 13.5165L159.048 13.5355L160.162 10.75ZM167.7 18.2875L164.866 19.2731L164.893 19.349L164.923 19.4234L167.7 18.2875ZM166.462 31.7875L163.942 30.1612L163.935 30.1717L163.928 30.1824L166.462 31.7875ZM160.5 37.525L162.021 40.1108L162.049 40.0944L162.076 40.0774L160.5 37.525ZM151.5 40.9L152.076 43.8442L152.107 43.8382L152.137 43.8316L151.5 40.9ZM134.85 41.6875L135.343 38.7284L132.365 38.2319L131.888 41.2136L134.85 41.6875ZM133.387 54.2875L130.397 54.0464L130.395 54.0688L130.394 54.0912L133.387 54.2875ZM132.937 106.263H129.937V109.263H132.937V106.263ZM148.012 106.263L150.849 107.239L152.218 103.263H148.012V106.263ZM145.65 113.125V116.125H147.79L148.487 114.102L145.65 113.125ZM132.937 113.125V110.125H129.937V113.125H132.937ZM132.712 157.338L135.711 157.434L135.711 157.433L132.712 157.338ZM131.475 169.825L134.424 170.378L134.426 170.367L131.475 169.825ZM128.437 179.613L131.149 180.897L131.155 180.883L131.161 180.87L128.437 179.613ZM122.812 188.05L125.072 190.023L125.082 190.012L122.812 188.05ZM32.3624 156.438L29.5951 155.279L29.5836 155.307L29.5726 155.335L32.3624 156.438ZM37.5374 147.888L39.825 149.828L39.8392 149.812L39.8532 149.795L37.5374 147.888ZM44.3999 141.363L42.6699 138.912L42.6526 138.924L42.6354 138.936L44.3999 141.363ZM58.3499 134.05L57.3686 131.215L58.3499 134.05ZM62.7374 132.7L65.4338 131.385L64.3877 129.24L62.0629 129.777L62.7374 132.7ZM64.9874 137.313L66.3751 139.972L68.9639 138.622L67.6838 135.997L64.9874 137.313ZM59.1374 141.025L60.8812 143.466L60.8891 143.461L60.897 143.455L59.1374 141.025ZM53.1749 146.875L55.5102 148.758L55.5247 148.74L55.539 148.722L53.1749 146.875ZM49.0124 180.513L46.2495 181.681L46.2536 181.691L46.2578 181.701L49.0124 180.513ZM55.8749 190.3L53.8401 192.504L53.8694 192.532L53.8994 192.558L55.8749 190.3ZM66.4499 196.375L65.4542 199.205L65.4854 199.216L65.5168 199.226L66.4499 196.375ZM94.9124 196.15L93.9778 193.299L93.9708 193.302L93.9638 193.304L94.9124 196.15ZM116.85 113.125H119.85V110.125H116.85V113.125ZM95.0249 113.125L92.1743 112.19L90.8842 116.125H95.0249V113.125ZM97.2749 106.263V103.263H95.1014L94.4243 105.328L97.2749 106.263ZM144.412 19.4125L146.345 21.7073L146.362 21.6926L146.38 21.6776L144.412 19.4125ZM137.325 31.7875L134.468 30.8719L133.403 34.1938L136.847 34.7493L137.325 31.7875ZM155.437 32.2375L156.475 35.0526L156.513 35.0383L156.552 35.023L155.437 32.2375ZM159.487 18.0625L157.315 20.1315L157.34 20.158L157.366 20.1839L159.487 18.0625ZM119.85 106.263V85.45H113.85V106.263H119.85ZM119.85 85.45C119.85 76.5064 120.111 68.4042 120.63 61.1388L114.645 60.7113C114.114 68.1459 113.85 76.3937 113.85 85.45H119.85ZM120.628 61.1667C121.212 53.933 122.451 47.2897 124.328 41.2246L118.597 39.4505C116.574 45.9854 115.263 53.0671 114.647 60.6834L120.628 61.1667ZM121.913 37.3716C116.029 36.4778 109.994 35.4347 103.805 34.2418L102.67 40.1333C108.931 41.3404 115.046 42.3972 121.012 43.3035L121.913 37.3716ZM103.839 34.2485C97.5987 32.9703 91.4699 31.7671 85.4528 30.6389L84.3471 36.5361C90.33 37.658 96.4262 38.8547 102.635 40.1265L103.839 34.2485ZM85.4596 30.6402C79.4908 29.5069 73.7792 28.5611 68.3252 27.8036L67.4997 33.7465C72.8457 34.489 78.459 35.4182 84.3403 36.5349L85.4596 30.6402ZM68.3718 27.8104C62.932 26.9676 57.9748 26.5375 53.5124 26.5375V32.5375C57.6001 32.5375 62.2429 32.9324 67.4531 33.7397L68.3718 27.8104ZM53.5124 26.5375C47.5915 26.5375 42.522 27.035 38.3714 28.093L39.8535 33.9071C43.3528 33.0151 47.8834 32.5375 53.5124 32.5375V26.5375ZM38.4253 28.0798C34.3761 29.0325 30.927 30.3848 28.2049 32.2288L31.57 37.1963C33.4979 35.8903 36.1988 34.7675 39.7996 33.9203L38.4253 28.0798ZM28.2049 32.2288C25.5255 34.0439 23.4649 36.2727 22.2164 38.9617L27.6585 41.4884C28.36 39.9773 29.5994 38.5312 31.57 37.1963L28.2049 32.2288ZM22.196 39.0066C21.1172 41.434 20.5874 44.0264 20.5874 46.75H26.5874C26.5874 44.8237 26.9577 43.0661 27.6789 41.4435L22.196 39.0066ZM20.5874 46.75C20.5874 49.5459 21.2238 52.1757 22.521 54.5848L27.8039 51.7402C27.0011 50.2493 26.5874 48.6041 26.5874 46.75H20.5874ZM22.5639 54.6617C23.9177 57.0083 25.7857 59.0326 28.1018 60.7482L31.6731 55.9269C29.9392 54.6425 28.6572 53.2167 27.761 51.6634L22.5639 54.6617ZM28.161 60.791C30.4923 62.4315 33.1975 63.6859 36.2325 64.5881L37.9424 58.8369C35.4273 58.0892 33.3326 57.0935 31.6139 55.8841L28.161 60.791ZM36.2533 64.5942C39.4142 65.5092 42.85 65.95 46.5374 65.95V59.95C43.3249 59.95 40.4606 59.5658 37.9216 58.8308L36.2533 64.5942ZM46.5374 65.95C50.5702 65.95 54.2288 65.516 57.4768 64.5999L55.8481 58.8252C53.2461 59.5591 50.1547 59.95 46.5374 59.95V65.95ZM57.5245 64.586C60.6386 63.6518 63.3588 62.6185 65.6541 61.4708L62.9708 56.1043C61.0661 57.0566 58.6863 57.9733 55.8004 58.8391L57.5245 64.586ZM65.6213 61.487C68.2921 60.192 70.6809 58.6745 72.767 56.9221L68.9079 52.3279C67.244 53.7256 65.2828 54.983 63.0036 56.0881L65.6213 61.487ZM68.1173 55.8902L70.3673 60.7277L75.8076 58.1973L73.5576 53.3598L68.1173 55.8902ZM71.2999 57.0532C69.1334 58.6606 66.744 60.1033 64.125 61.3773L66.7498 66.7727C69.6809 65.3468 72.3914 63.7145 74.875 61.8718L71.2999 57.0532ZM64.0958 61.3918C61.8807 62.4993 59.2331 63.5283 56.1318 64.4659L57.8681 70.2092C61.2168 69.1968 64.1942 68.0508 66.7791 66.7583L64.0958 61.3918ZM56.1758 64.453C53.3342 65.2648 50.1291 65.6875 46.5374 65.6875V71.6875C50.5958 71.6875 54.3657 71.2102 57.8241 70.2221L56.1758 64.453ZM46.5374 65.6875C41.7763 65.6875 37.6555 65.0475 34.1313 63.8276L32.1686 69.4975C36.4444 70.9776 41.2486 71.6875 46.5374 71.6875V65.6875ZM34.1484 63.8336C30.6133 62.5859 27.7269 60.9559 25.4273 58.9848L21.5226 63.5403C24.473 66.0692 28.0366 68.0392 32.1515 69.4915L34.1484 63.8336ZM25.4641 59.0168C23.1492 56.9665 21.4272 54.6166 20.2594 51.9566L14.7655 54.3685C16.2977 57.8584 18.5507 60.9086 21.4858 63.5083L25.4641 59.0168ZM20.2594 51.9566C19.0809 49.2722 18.4874 46.4215 18.4874 43.375H12.4874C12.4874 47.2286 13.244 50.9028 14.7655 54.3685L20.2594 51.9566ZM18.4874 43.375C18.4874 40.0553 19.0619 36.8448 20.2139 33.7275L14.586 31.6476C13.188 35.4302 12.4874 39.3448 12.4874 43.375H18.4874ZM20.2334 33.6731C21.2572 30.7298 23.0263 28.0632 25.6223 25.6669L21.5526 21.2581C18.2985 24.2619 15.9427 27.7452 14.5665 31.702L20.2334 33.6731ZM25.6507 25.6404C28.109 23.3115 31.4814 21.3685 35.8986 19.8961L34.0013 14.204C28.9685 15.8816 24.7659 18.2136 21.5242 21.2847L25.6507 25.6404ZM35.939 19.8823C40.2509 18.3766 45.706 17.575 52.3874 17.575V11.575C45.2689 11.575 39.099 12.4235 33.9609 14.2178L35.939 19.8823ZM52.3874 17.575C58.5969 17.575 64.8089 18.0863 71.0249 19.1101L72 13.1899C65.466 12.1137 58.928 11.575 52.3874 11.575V17.575ZM71.0641 19.1163C77.4302 20.0787 83.6828 21.2997 89.8222 22.7791L91.2277 16.946C84.9171 15.4254 78.4947 14.1714 71.9608 13.1837L71.0641 19.1163ZM89.8631 22.7886C96.1065 24.2008 102.16 25.7607 108.024 27.4679L109.701 21.7071C103.715 19.9643 97.5434 18.3743 91.1868 16.9365L89.8631 22.7886ZM108.067 27.4801C114.09 29.1365 119.853 30.6433 125.357 32.0003L126.793 26.1748C121.346 24.8318 115.635 23.3386 109.658 21.6949L108.067 27.4801ZM128.71 30.5218C131.752 24.9323 135.488 20.5621 139.888 17.3305L136.337 12.4945C131.137 16.313 126.848 21.3928 123.44 27.6533L128.71 30.5218ZM139.912 17.3125C144.23 14.0744 148.819 12.5125 153.75 12.5125V6.51253C147.431 6.51253 141.595 8.5507 136.312 12.5125L139.912 17.3125ZM153.75 12.5125C155.805 12.5125 157.52 12.8648 158.954 13.496L161.371 8.00409C159.055 6.98528 156.495 6.51253 153.75 6.51253V12.5125ZM159.048 13.5355C160.591 14.1527 161.811 14.9537 162.766 15.9089L167.009 11.6662C165.414 10.0713 163.484 8.84738 161.277 7.9646L159.048 13.5355ZM162.766 15.9089C163.717 16.8596 164.413 17.9698 164.866 19.2731L170.533 17.302C169.787 15.1552 168.608 13.2655 167.009 11.6662L162.766 15.9089ZM164.923 19.4234C165.443 20.6944 165.712 22.0691 165.712 23.575H171.712C171.712 21.331 171.307 19.1807 170.477 17.1516L164.923 19.4234ZM165.712 23.575C165.712 26.2302 165.087 28.3856 163.942 30.1612L168.983 33.4139C170.838 30.5395 171.712 27.2198 171.712 23.575H165.712ZM163.928 30.1824C162.775 32.0023 161.135 33.6065 158.923 34.9726L162.076 40.0774C164.965 38.2936 167.3 36.0727 168.997 33.3927L163.928 30.1824ZM158.979 34.9392C156.75 36.2501 154.06 37.2734 150.863 37.9685L152.137 43.8316C155.84 43.0266 159.149 41.8 162.021 40.1108L158.979 34.9392ZM150.924 37.9559C147.686 38.5893 144.169 38.9125 140.362 38.9125V44.9125C144.506 44.9125 148.413 44.5608 152.076 43.8442L150.924 37.9559ZM140.362 38.9125C140.361 38.9125 140.359 38.9125 140.357 38.9125C140.355 38.9125 140.354 38.9125 140.352 38.9125C140.35 38.9125 140.348 38.9125 140.347 38.9125C140.345 38.9125 140.343 38.9125 140.341 38.9125C140.34 38.9125 140.338 38.9125 140.336 38.9125C140.334 38.9125 140.333 38.9125 140.331 38.9125C140.329 38.9125 140.327 38.9125 140.326 38.9125C140.324 38.9125 140.322 38.9125 140.32 38.9125C140.318 38.9125 140.317 38.9125 140.315 38.9125C140.313 38.9125 140.311 38.9125 140.31 38.9125C140.308 38.9125 140.306 38.9125 140.304 38.9125C140.303 38.9125 140.301 38.9125 140.299 38.9125C140.297 38.9125 140.296 38.9125 140.294 38.9125C140.292 38.9125 140.29 38.9125 140.289 38.9125C140.287 38.9125 140.285 38.9125 140.283 38.9125C140.281 38.9125 140.28 38.9125 140.278 38.9125C140.276 38.9125 140.274 38.9125 140.273 38.9125C140.271 38.9125 140.269 38.9125 140.267 38.9125C140.266 38.9125 140.264 38.9125 140.262 38.9125C140.26 38.9125 140.259 38.9125 140.257 38.9125C140.255 38.9125 140.253 38.9125 140.252 38.9125C140.25 38.9125 140.248 38.9125 140.246 38.9125C140.244 38.9125 140.243 38.9125 140.241 38.9125C140.239 38.9125 140.237 38.9125 140.236 38.9125C140.234 38.9125 140.232 38.9125 140.23 38.9125C140.229 38.9125 140.227 38.9125 140.225 38.9125C140.223 38.9125 140.222 38.9125 140.22 38.9125C140.218 38.9125 140.216 38.9125 140.214 38.9125C140.213 38.9125 140.211 38.9125 140.209 38.9125C140.207 38.9125 140.206 38.9125 140.204 38.9125C140.202 38.9125 140.2 38.9125 140.199 38.9125C140.197 38.9125 140.195 38.9125 140.193 38.9125C140.191 38.9125 140.19 38.9125 140.188 38.9125C140.186 38.9125 140.184 38.9125 140.183 38.9125C140.181 38.9125 140.179 38.9125 140.177 38.9125C140.176 38.9125 140.174 38.9125 140.172 38.9125C140.17 38.9125 140.169 38.9125 140.167 38.9125C140.165 38.9125 140.163 38.9125 140.161 38.9125C140.16 38.9125 140.158 38.9125 140.156 38.9125C140.154 38.9125 140.153 38.9125 140.151 38.9125C140.149 38.9125 140.147 38.9125 140.146 38.9125C140.144 38.9125 140.142 38.9125 140.14 38.9125C140.138 38.9125 140.137 38.9125 140.135 38.9125C140.133 38.9125 140.131 38.9125 140.13 38.9125C140.128 38.9125 140.126 38.9125 140.124 38.9125C140.123 38.9125 140.121 38.9125 140.119 38.9125C140.117 38.9125 140.115 38.9125 140.114 38.9125C140.112 38.9125 140.11 38.9125 140.108 38.9125C140.107 38.9125 140.105 38.9125 140.103 38.9125C140.101 38.9125 140.099 38.9125 140.098 38.9125C140.096 38.9125 140.094 38.9125 140.092 38.9125C140.091 38.9125 140.089 38.9125 140.087 38.9125C140.085 38.9125 140.084 38.9125 140.082 38.9125C140.08 38.9125 140.078 38.9125 140.076 38.9125C140.075 38.9125 140.073 38.9125 140.071 38.9125C140.069 38.9125 140.068 38.9125 140.066 38.9125C140.064 38.9125 140.062 38.9125 140.06 38.9125C140.059 38.9125 140.057 38.9125 140.055 38.9125C140.053 38.9125 140.052 38.9125 140.05 38.9125C140.048 38.9125 140.046 38.9125 140.045 38.9125C140.043 38.9125 140.041 38.9125 140.039 38.9125C140.037 38.9125 140.036 38.9125 140.034 38.9125C140.032 38.9125 140.03 38.9125 140.029 38.9125C140.027 38.9125 140.025 38.9125 140.023 38.9125C140.021 38.9125 140.02 38.9125 140.018 38.9125C140.016 38.9125 140.014 38.9125 140.013 38.9125C140.011 38.9125 140.009 38.9125 140.007 38.9125C140.005 38.9125 140.004 38.9125 140.002 38.9125C140 38.9125 139.998 38.9125 139.997 38.9125C139.995 38.9125 139.993 38.9125 139.991 38.9125C139.989 38.9125 139.988 38.9125 139.986 38.9125C139.984 38.9125 139.982 38.9125 139.981 38.9125C139.979 38.9125 139.977 38.9125 139.975 38.9125C139.973 38.9125 139.972 38.9125 139.97 38.9125C139.968 38.9125 139.966 38.9125 139.965 38.9125C139.963 38.9125 139.961 38.9125 139.959 38.9125C139.957 38.9125 139.956 38.9125 139.954 38.9125C139.952 38.9125 139.95 38.9125 139.949 38.9125C139.947 38.9125 139.945 38.9125 139.943 38.9125C139.941 38.9125 139.94 38.9125 139.938 38.9125C139.936 38.9125 139.934 38.9125 139.932 38.9125C139.931 38.9125 139.929 38.9125 139.927 38.9125C139.925 38.9125 139.924 38.9125 139.922 38.9125C139.92 38.9125 139.918 38.9125 139.916 38.9125C139.915 38.9125 139.913 38.9125 139.911 38.9125C139.909 38.9125 139.908 38.9125 139.906 38.9125C139.904 38.9125 139.902 38.9125 139.9 38.9125C139.899 38.9125 139.897 38.9125 139.895 38.9125C139.893 38.9125 139.891 38.9125 139.89 38.9125C139.888 38.9125 139.886 38.9125 139.884 38.9125C139.883 38.9125 139.881 38.9125 139.879 38.9125C139.877 38.9125 139.875 38.9125 139.874 38.9125C139.872 38.9125 139.87 38.9125 139.868 38.9125C139.867 38.9125 139.865 38.9125 139.863 38.9125C139.861 38.9125 139.859 38.9125 139.858 38.9125C139.856 38.9125 139.854 38.9125 139.852 38.9125C139.85 38.9125 139.849 38.9125 139.847 38.9125C139.845 38.9125 139.843 38.9125 139.842 38.9125C139.84 38.9125 139.838 38.9125 139.836 38.9125C139.834 38.9125 139.833 38.9125 139.831 38.9125C139.829 38.9125 139.827 38.9125 139.825 38.9125C139.824 38.9125 139.822 38.9125 139.82 38.9125C139.818 38.9125 139.817 38.9125 139.815 38.9125C139.813 38.9125 139.811 38.9125 139.809 38.9125C139.808 38.9125 139.806 38.9125 139.804 38.9125C139.802 38.9125 139.8 38.9125 139.799 38.9125C139.797 38.9125 139.795 38.9125 139.793 38.9125C139.791 38.9125 139.79 38.9125 139.788 38.9125C139.786 38.9125 139.784 38.9125 139.783 38.9125C139.781 38.9125 139.779 38.9125 139.777 38.9125C139.775 38.9125 139.774 38.9125 139.772 38.9125C139.77 38.9125 139.768 38.9125 139.766 38.9125C139.765 38.9125 139.763 38.9125 139.761 38.9125C139.759 38.9125 139.757 38.9125 139.756 38.9125C139.754 38.9125 139.752 38.9125 139.75 38.9125C139.749 38.9125 139.747 38.9125 139.745 38.9125C139.743 38.9125 139.741 38.9125 139.74 38.9125C139.738 38.9125 139.736 38.9125 139.734 38.9125C139.732 38.9125 139.731 38.9125 139.729 38.9125C139.727 38.9125 139.725 38.9125 139.723 38.9125C139.722 38.9125 139.72 38.9125 139.718 38.9125C139.716 38.9125 139.714 38.9125 139.713 38.9125C139.711 38.9125 139.709 38.9125 139.707 38.9125C139.706 38.9125 139.704 38.9125 139.702 38.9125C139.7 38.9125 139.698 38.9125 139.697 38.9125C139.695 38.9125 139.693 38.9125 139.691 38.9125C139.689 38.9125 139.688 38.9125 139.686 38.9125C139.684 38.9125 139.682 38.9125 139.68 38.9125C139.679 38.9125 139.677 38.9125 139.675 38.9125C139.673 38.9125 139.671 38.9125 139.67 38.9125C139.668 38.9125 139.666 38.9125 139.664 38.9125C139.662 38.9125 139.661 38.9125 139.659 38.9125C139.657 38.9125 139.655 38.9125 139.653 38.9125C139.652 38.9125 139.65 38.9125 139.648 38.9125C139.646 38.9125 139.645 38.9125 139.643 38.9125C139.641 38.9125 139.639 38.9125 139.637 38.9125C139.636 38.9125 139.634 38.9125 139.632 38.9125C139.63 38.9125 139.628 38.9125 139.627 38.9125C139.625 38.9125 139.623 38.9125 139.621 38.9125C139.619 38.9125 139.618 38.9125 139.616 38.9125C139.614 38.9125 139.612 38.9125 139.61 38.9125C139.609 38.9125 139.607 38.9125 139.605 38.9125C139.603 38.9125 139.601 38.9125 139.6 38.9125C139.598 38.9125 139.596 38.9125 139.594 38.9125C139.592 38.9125 139.591 38.9125 139.589 38.9125C139.587 38.9125 139.585 38.9125 139.583 38.9125C139.582 38.9125 139.58 38.9125 139.578 38.9125C139.576 38.9125 139.574 38.9125 139.573 38.9125C139.571 38.9125 139.569 38.9125 139.567 38.9125C139.565 38.9125 139.564 38.9125 139.562 38.9125C139.56 38.9125 139.558 38.9125 139.556 38.9125C139.555 38.9125 139.553 38.9125 139.551 38.9125C139.549 38.9125 139.547 38.9125 139.546 38.9125C139.544 38.9125 139.542 38.9125 139.54 38.9125C139.538 38.9125 139.537 38.9125 139.535 38.9125C139.533 38.9125 139.531 38.9125 139.529 38.9125C139.528 38.9125 139.526 38.9125 139.524 38.9125C139.522 38.9125 139.52 38.9125 139.519 38.9125C139.517 38.9125 139.515 38.9125 139.513 38.9125C139.511 38.9125 139.51 38.9125 139.508 38.9125C139.506 38.9125 139.504 38.9125 139.502 38.9125C139.5 38.9125 139.499 38.9125 139.497 38.9125C139.495 38.9125 139.493 38.9125 139.491 38.9125C139.49 38.9125 139.488 38.9125 139.486 38.9125C139.484 38.9125 139.482 38.9125 139.481 38.9125C139.479 38.9125 139.477 38.9125 139.475 38.9125C139.473 38.9125 139.472 38.9125 139.47 38.9125C139.468 38.9125 139.466 38.9125 139.464 38.9125C139.463 38.9125 139.461 38.9125 139.459 38.9125C139.457 38.9125 139.455 38.9125 139.454 38.9125C139.452 38.9125 139.45 38.9125 139.448 38.9125C139.446 38.9125 139.445 38.9125 139.443 38.9125C139.441 38.9125 139.439 38.9125 139.437 38.9125C139.435 38.9125 139.434 38.9125 139.432 38.9125C139.43 38.9125 139.428 38.9125 139.426 38.9125C139.425 38.9125 139.423 38.9125 139.421 38.9125C139.419 38.9125 139.417 38.9125 139.416 38.9125C139.414 38.9125 139.412 38.9125 139.41 38.9125C139.408 38.9125 139.407 38.9125 139.405 38.9125C139.403 38.9125 139.401 38.9125 139.399 38.9125C139.398 38.9125 139.396 38.9125 139.394 38.9125C139.392 38.9125 139.39 38.9125 139.388 38.9125C139.387 38.9125 139.385 38.9125 139.383 38.9125C139.381 38.9125 139.379 38.9125 139.378 38.9125C139.376 38.9125 139.374 38.9125 139.372 38.9125C139.37 38.9125 139.369 38.9125 139.367 38.9125C139.365 38.9125 139.363 38.9125 139.361 38.9125C139.359 38.9125 139.358 38.9125 139.356 38.9125C139.354 38.9125 139.352 38.9125 139.35 38.9125C139.349 38.9125 139.347 38.9125 139.345 38.9125C139.343 38.9125 139.341 38.9125 139.34 38.9125C139.338 38.9125 139.336 38.9125 139.334 38.9125C139.332 38.9125 139.331 38.9125 139.329 38.9125C139.327 38.9125 139.325 38.9125 139.323 38.9125C139.321 38.9125 139.32 38.9125 139.318 38.9125C139.316 38.9125 139.314 38.9125 139.312 38.9125C139.311 38.9125 139.309 38.9125 139.307 38.9125C139.305 38.9125 139.303 38.9125 139.301 38.9125C139.3 38.9125 139.298 38.9125 139.296 38.9125C139.294 38.9125 139.292 38.9125 139.291 38.9125C139.289 38.9125 139.287 38.9125 139.285 38.9125C139.283 38.9125 139.282 38.9125 139.28 38.9125C139.278 38.9125 139.276 38.9125 139.274 38.9125C139.272 38.9125 139.271 38.9125 139.269 38.9125C139.267 38.9125 139.265 38.9125 139.263 38.9125C139.262 38.9125 139.26 38.9125 139.258 38.9125C139.256 38.9125 139.254 38.9125 139.252 38.9125C139.251 38.9125 139.249 38.9125 139.247 38.9125C139.245 38.9125 139.243 38.9125 139.242 38.9125C139.24 38.9125 139.238 38.9125 139.236 38.9125C139.234 38.9125 139.232 38.9125 139.231 38.9125C139.229 38.9125 139.227 38.9125 139.225 38.9125C139.223 38.9125 139.222 38.9125 139.22 38.9125C139.218 38.9125 139.216 38.9125 139.214 38.9125C139.212 38.9125 139.211 38.9125 139.209 38.9125C139.207 38.9125 139.205 38.9125 139.203 38.9125C139.202 38.9125 139.2 38.9125 139.198 38.9125C139.196 38.9125 139.194 38.9125 139.192 38.9125C139.191 38.9125 139.189 38.9125 139.187 38.9125C139.185 38.9125 139.183 38.9125 139.182 38.9125C139.18 38.9125 139.178 38.9125 139.176 38.9125C139.174 38.9125 139.172 38.9125 139.171 38.9125C139.169 38.9125 139.167 38.9125 139.165 38.9125C139.163 38.9125 139.161 38.9125 139.16 38.9125C139.158 38.9125 139.156 38.9125 139.154 38.9125C139.152 38.9125 139.151 38.9125 139.149 38.9125C139.147 38.9125 139.145 38.9125 139.143 38.9125C139.141 38.9125 139.14 38.9125 139.138 38.9125C139.136 38.9125 139.134 38.9125 139.132 38.9125C139.131 38.9125 139.129 38.9125 139.127 38.9125C139.125 38.9125 139.123 38.9125 139.121 38.9125C139.12 38.9125 139.118 38.9125 139.116 38.9125C139.114 38.9125 139.112 38.9125 139.11 38.9125C139.109 38.9125 139.107 38.9125 139.105 38.9125C139.103 38.9125 139.101 38.9125 139.099 38.9125C139.098 38.9125 139.096 38.9125 139.094 38.9125C139.092 38.9125 139.09 38.9125 139.089 38.9125C139.087 38.9125 139.085 38.9125 139.083 38.9125C139.081 38.9125 139.079 38.9125 139.078 38.9125C139.076 38.9125 139.074 38.9125 139.072 38.9125C139.07 38.9125 139.068 38.9125 139.067 38.9125C139.065 38.9125 139.063 38.9125 139.061 38.9125C139.059 38.9125 139.057 38.9125 139.056 38.9125C139.054 38.9125 139.052 38.9125 139.05 38.9125C139.048 38.9125 139.047 38.9125 139.045 38.9125C139.043 38.9125 139.041 38.9125 139.039 38.9125C139.037 38.9125 139.036 38.9125 139.034 38.9125C139.032 38.9125 139.03 38.9125 139.028 38.9125C139.026 38.9125 139.025 38.9125 139.023 38.9125C139.021 38.9125 139.019 38.9125 139.017 38.9125C139.015 38.9125 139.014 38.9125 139.012 38.9125C139.01 38.9125 139.008 38.9125 139.006 38.9125C139.004 38.9125 139.003 38.9125 139.001 38.9125C138.999 38.9125 138.997 38.9125 138.995 38.9125C138.993 38.9125 138.992 38.9125 138.99 38.9125C138.988 38.9125 138.986 38.9125 138.984 38.9125C138.982 38.9125 138.981 38.9125 138.979 38.9125C138.977 38.9125 138.975 38.9125 138.973 38.9125C138.972 38.9125 138.97 38.9125 138.968 38.9125C138.966 38.9125 138.964 38.9125 138.962 38.9125C138.961 38.9125 138.959 38.9125 138.957 38.9125C138.955 38.9125 138.953 38.9125 138.951 38.9125C138.95 38.9125 138.948 38.9125 138.946 38.9125C138.944 38.9125 138.942 38.9125 138.94 38.9125C138.939 38.9125 138.937 38.9125 138.935 38.9125C138.933 38.9125 138.931 38.9125 138.929 38.9125C138.928 38.9125 138.926 38.9125 138.924 38.9125C138.922 38.9125 138.92 38.9125 138.918 38.9125C138.917 38.9125 138.915 38.9125 138.913 38.9125C138.911 38.9125 138.909 38.9125 138.907 38.9125C138.906 38.9125 138.904 38.9125 138.902 38.9125C138.9 38.9125 138.898 38.9125 138.896 38.9125C138.894 38.9125 138.893 38.9125 138.891 38.9125C138.889 38.9125 138.887 38.9125 138.885 38.9125C138.883 38.9125 138.882 38.9125 138.88 38.9125C138.878 38.9125 138.876 38.9125 138.874 38.9125C138.872 38.9125 138.871 38.9125 138.869 38.9125C138.867 38.9125 138.865 38.9125 138.863 38.9125C138.861 38.9125 138.86 38.9125 138.858 38.9125C138.856 38.9125 138.854 38.9125 138.852 38.9125C138.85 38.9125 138.849 38.9125 138.847 38.9125C138.845 38.9125 138.843 38.9125 138.841 38.9125C138.839 38.9125 138.838 38.9125 138.836 38.9125C138.834 38.9125 138.832 38.9125 138.83 38.9125C138.828 38.9125 138.826 38.9125 138.825 38.9125C138.823 38.9125 138.821 38.9125 138.819 38.9125C138.817 38.9125 138.815 38.9125 138.814 38.9125C138.812 38.9125 138.81 38.9125 138.808 38.9125C138.806 38.9125 138.804 38.9125 138.803 38.9125C138.801 38.9125 138.799 38.9125 138.797 38.9125C138.795 38.9125 138.793 38.9125 138.792 38.9125C138.79 38.9125 138.788 38.9125 138.786 38.9125C138.784 38.9125 138.782 38.9125 138.78 38.9125C138.779 38.9125 138.777 38.9125 138.775 38.9125C138.773 38.9125 138.771 38.9125 138.769 38.9125C138.768 38.9125 138.766 38.9125 138.764 38.9125C138.762 38.9125 138.76 38.9125 138.758 38.9125C138.757 38.9125 138.755 38.9125 138.753 38.9125C138.751 38.9125 138.749 38.9125 138.747 38.9125C138.745 38.9125 138.744 38.9125 138.742 38.9125C138.74 38.9125 138.738 38.9125 138.736 38.9125C138.734 38.9125 138.733 38.9125 138.731 38.9125C138.729 38.9125 138.727 38.9125 138.725 38.9125C138.723 38.9125 138.722 38.9125 138.72 38.9125C138.718 38.9125 138.716 38.9125 138.714 38.9125C138.712 38.9125 138.71 38.9125 138.709 38.9125C138.707 38.9125 138.705 38.9125 138.703 38.9125C138.701 38.9125 138.699 38.9125 138.698 38.9125C138.696 38.9125 138.694 38.9125 138.692 38.9125C138.69 38.9125 138.688 38.9125 138.686 38.9125C138.685 38.9125 138.683 38.9125 138.681 38.9125C138.679 38.9125 138.677 38.9125 138.675 38.9125C138.674 38.9125 138.672 38.9125 138.67 38.9125C138.668 38.9125 138.666 38.9125 138.664 38.9125C138.662 38.9125 138.661 38.9125 138.659 38.9125C138.657 38.9125 138.655 38.9125 138.653 38.9125C138.651 38.9125 138.649 38.9125 138.648 38.9125C138.646 38.9125 138.644 38.9125 138.642 38.9125C138.64 38.9125 138.638 38.9125 138.637 38.9125C138.635 38.9125 138.633 38.9125 138.631 38.9125C138.629 38.9125 138.627 38.9125 138.625 38.9125C138.624 38.9125 138.622 38.9125 138.62 38.9125C138.618 38.9125 138.616 38.9125 138.614 38.9125C138.613 38.9125 138.611 38.9125 138.609 38.9125C138.607 38.9125 138.605 38.9125 138.603 38.9125C138.601 38.9125 138.6 38.9125 138.598 38.9125C138.596 38.9125 138.594 38.9125 138.592 38.9125C138.59 38.9125 138.588 38.9125 138.587 38.9125C138.585 38.9125 138.583 38.9125 138.581 38.9125C138.579 38.9125 138.577 38.9125 138.575 38.9125C138.574 38.9125 138.572 38.9125 138.57 38.9125C138.568 38.9125 138.566 38.9125 138.564 38.9125C138.563 38.9125 138.561 38.9125 138.559 38.9125C138.557 38.9125 138.555 38.9125 138.553 38.9125C138.551 38.9125 138.55 38.9125 138.548 38.9125C138.546 38.9125 138.544 38.9125 138.542 38.9125C138.54 38.9125 138.538 38.9125 138.537 38.9125C138.535 38.9125 138.533 38.9125 138.531 38.9125C138.529 38.9125 138.527 38.9125 138.525 38.9125C138.524 38.9125 138.522 38.9125 138.52 38.9125C138.518 38.9125 138.516 38.9125 138.514 38.9125C138.512 38.9125 138.511 38.9125 138.509 38.9125C138.507 38.9125 138.505 38.9125 138.503 38.9125C138.501 38.9125 138.499 38.9125 138.498 38.9125C138.496 38.9125 138.494 38.9125 138.492 38.9125C138.49 38.9125 138.488 38.9125 138.486 38.9125C138.485 38.9125 138.483 38.9125 138.481 38.9125C138.479 38.9125 138.477 38.9125 138.475 38.9125C138.473 38.9125 138.472 38.9125 138.47 38.9125C138.468 38.9125 138.466 38.9125 138.464 38.9125C138.462 38.9125 138.46 38.9125 138.459 38.9125C138.457 38.9125 138.455 38.9125 138.453 38.9125C138.451 38.9125 138.449 38.9125 138.447 38.9125C138.446 38.9125 138.444 38.9125 138.442 38.9125C138.44 38.9125 138.438 38.9125 138.436 38.9125C138.434 38.9125 138.433 38.9125 138.431 38.9125C138.429 38.9125 138.427 38.9125 138.425 38.9125C138.423 38.9125 138.421 38.9125 138.42 38.9125C138.418 38.9125 138.416 38.9125 138.414 38.9125C138.412 38.9125 138.41 38.9125 138.408 38.9125C138.407 38.9125 138.405 38.9125 138.403 38.9125C138.401 38.9125 138.399 38.9125 138.397 38.9125C138.395 38.9125 138.394 38.9125 138.392 38.9125C138.39 38.9125 138.388 38.9125 138.386 38.9125C138.384 38.9125 138.382 38.9125 138.38 38.9125C138.379 38.9125 138.377 38.9125 138.375 38.9125C138.373 38.9125 138.371 38.9125 138.369 38.9125C138.367 38.9125 138.366 38.9125 138.364 38.9125C138.362 38.9125 138.36 38.9125 138.358 38.9125C138.356 38.9125 138.354 38.9125 138.353 38.9125C138.351 38.9125 138.349 38.9125 138.347 38.9125C138.345 38.9125 138.343 38.9125 138.341 38.9125C138.339 38.9125 138.338 38.9125 138.336 38.9125C138.334 38.9125 138.332 38.9125 138.33 38.9125C138.328 38.9125 138.326 38.9125 138.325 38.9125C138.323 38.9125 138.321 38.9125 138.319 38.9125C138.317 38.9125 138.315 38.9125 138.313 38.9125C138.312 38.9125 138.31 38.9125 138.308 38.9125C138.306 38.9125 138.304 38.9125 138.302 38.9125C138.3 38.9125 138.298 38.9125 138.297 38.9125C138.295 38.9125 138.293 38.9125 138.291 38.9125C138.289 38.9125 138.287 38.9125 138.285 38.9125C138.284 38.9125 138.282 38.9125 138.28 38.9125C138.278 38.9125 138.276 38.9125 138.274 38.9125C138.272 38.9125 138.27 38.9125 138.269 38.9125C138.267 38.9125 138.265 38.9125 138.263 38.9125C138.261 38.9125 138.259 38.9125 138.257 38.9125C138.255 38.9125 138.254 38.9125 138.252 38.9125C138.25 38.9125 138.248 38.9125 138.246 38.9125C138.244 38.9125 138.242 38.9125 138.241 38.9125C138.239 38.9125 138.237 38.9125 138.235 38.9125C138.233 38.9125 138.231 38.9125 138.229 38.9125C138.227 38.9125 138.226 38.9125 138.224 38.9125C138.222 38.9125 138.22 38.9125 138.218 38.9125C138.216 38.9125 138.214 38.9125 138.212 38.9125C138.211 38.9125 138.209 38.9125 138.207 38.9125C138.205 38.9125 138.203 38.9125 138.201 38.9125C138.199 38.9125 138.198 38.9125 138.196 38.9125C138.194 38.9125 138.192 38.9125 138.19 38.9125C138.188 38.9125 138.186 38.9125 138.184 38.9125C138.183 38.9125 138.181 38.9125 138.179 38.9125C138.177 38.9125 138.175 38.9125 138.173 38.9125C138.171 38.9125 138.169 38.9125 138.168 38.9125C138.166 38.9125 138.164 38.9125 138.162 38.9125C138.16 38.9125 138.158 38.9125 138.156 38.9125C138.154 38.9125 138.153 38.9125 138.151 38.9125C138.149 38.9125 138.147 38.9125 138.145 38.9125C138.143 38.9125 138.141 38.9125 138.139 38.9125C138.138 38.9125 138.136 38.9125 138.134 38.9125C138.132 38.9125 138.13 38.9125 138.128 38.9125C138.126 38.9125 138.124 38.9125 138.123 38.9125C138.121 38.9125 138.119 38.9125 138.117 38.9125C138.115 38.9125 138.113 38.9125 138.111 38.9125C138.109 38.9125 138.108 38.9125 138.106 38.9125C138.104 38.9125 138.102 38.9125 138.1 38.9125C138.098 38.9125 138.096 38.9125 138.094 38.9125C138.093 38.9125 138.091 38.9125 138.089 38.9125C138.087 38.9125 138.085 38.9125 138.083 38.9125C138.081 38.9125 138.079 38.9125 138.078 38.9125C138.076 38.9125 138.074 38.9125 138.072 38.9125C138.07 38.9125 138.068 38.9125 138.066 38.9125C138.064 38.9125 138.063 38.9125 138.061 38.9125C138.059 38.9125 138.057 38.9125 138.055 38.9125C138.053 38.9125 138.051 38.9125 138.049 38.9125C138.047 38.9125 138.046 38.9125 138.044 38.9125C138.042 38.9125 138.04 38.9125 138.038 38.9125C138.036 38.9125 138.034 38.9125 138.032 38.9125C138.031 38.9125 138.029 38.9125 138.027 38.9125C138.025 38.9125 138.023 38.9125 138.021 38.9125C138.019 38.9125 138.017 38.9125 138.016 38.9125C138.014 38.9125 138.012 38.9125 138.01 38.9125C138.008 38.9125 138.006 38.9125 138.004 38.9125C138.002 38.9125 138 38.9125 137.999 38.9125C137.997 38.9125 137.995 38.9125 137.993 38.9125C137.991 38.9125 137.989 38.9125 137.987 38.9125C137.985 38.9125 137.984 38.9125 137.982 38.9125C137.98 38.9125 137.978 38.9125 137.976 38.9125C137.974 38.9125 137.972 38.9125 137.97 38.9125C137.968 38.9125 137.967 38.9125 137.965 38.9125C137.963 38.9125 137.961 38.9125 137.959 38.9125C137.957 38.9125 137.955 38.9125 137.953 38.9125C137.952 38.9125 137.95 38.9125 137.948 38.9125C137.946 38.9125 137.944 38.9125 137.942 38.9125C137.94 38.9125 137.938 38.9125 137.936 38.9125C137.935 38.9125 137.933 38.9125 137.931 38.9125C137.929 38.9125 137.927 38.9125 137.925 38.9125C137.923 38.9125 137.921 38.9125 137.919 38.9125C137.918 38.9125 137.916 38.9125 137.914 38.9125C137.912 38.9125 137.91 38.9125 137.908 38.9125C137.906 38.9125 137.904 38.9125 137.902 38.9125C137.901 38.9125 137.899 38.9125 137.897 38.9125C137.895 38.9125 137.893 38.9125 137.891 38.9125C137.889 38.9125 137.887 38.9125 137.886 38.9125C137.884 38.9125 137.882 38.9125 137.88 38.9125C137.878 38.9125 137.876 38.9125 137.874 38.9125C137.872 38.9125 137.87 38.9125 137.869 38.9125C137.867 38.9125 137.865 38.9125 137.863 38.9125C137.861 38.9125 137.859 38.9125 137.857 38.9125C137.855 38.9125 137.853 38.9125 137.852 38.9125C137.85 38.9125 137.848 38.9125 137.846 38.9125C137.844 38.9125 137.842 38.9125 137.84 38.9125C137.838 38.9125 137.836 38.9125 137.835 38.9125C137.833 38.9125 137.831 38.9125 137.829 38.9125C137.827 38.9125 137.825 38.9125 137.823 38.9125C137.821 38.9125 137.819 38.9125 137.818 38.9125C137.816 38.9125 137.814 38.9125 137.812 38.9125C137.81 38.9125 137.808 38.9125 137.806 38.9125C137.804 38.9125 137.802 38.9125 137.8 38.9125C137.799 38.9125 137.797 38.9125 137.795 38.9125C137.793 38.9125 137.791 38.9125 137.789 38.9125C137.787 38.9125 137.785 38.9125 137.783 38.9125C137.782 38.9125 137.78 38.9125 137.778 38.9125C137.776 38.9125 137.774 38.9125 137.772 38.9125C137.77 38.9125 137.768 38.9125 137.766 38.9125C137.765 38.9125 137.763 38.9125 137.761 38.9125C137.759 38.9125 137.757 38.9125 137.755 38.9125C137.753 38.9125 137.751 38.9125 137.749 38.9125C137.747 38.9125 137.746 38.9125 137.744 38.9125C137.742 38.9125 137.74 38.9125 137.738 38.9125C137.736 38.9125 137.734 38.9125 137.732 38.9125C137.73 38.9125 137.729 38.9125 137.727 38.9125C137.725 38.9125 137.723 38.9125 137.721 38.9125C137.719 38.9125 137.717 38.9125 137.715 38.9125C137.713 38.9125 137.711 38.9125 137.71 38.9125C137.708 38.9125 137.706 38.9125 137.704 38.9125C137.702 38.9125 137.7 38.9125 137.698 38.9125C137.696 38.9125 137.694 38.9125 137.693 38.9125C137.691 38.9125 137.689 38.9125 137.687 38.9125C137.685 38.9125 137.683 38.9125 137.681 38.9125C137.679 38.9125 137.677 38.9125 137.675 38.9125C137.674 38.9125 137.672 38.9125 137.67 38.9125C137.668 38.9125 137.666 38.9125 137.664 38.9125C137.662 38.9125 137.66 38.9125 137.658 38.9125C137.656 38.9125 137.655 38.9125 137.653 38.9125C137.651 38.9125 137.649 38.9125 137.647 38.9125C137.645 38.9125 137.643 38.9125 137.641 38.9125C137.639 38.9125 137.637 38.9125 137.636 38.9125C137.634 38.9125 137.632 38.9125 137.63 38.9125C137.628 38.9125 137.626 38.9125 137.624 38.9125C137.622 38.9125 137.62 38.9125 137.618 38.9125C137.617 38.9125 137.615 38.9125 137.613 38.9125C137.611 38.9125 137.609 38.9125 137.607 38.9125C137.605 38.9125 137.603 38.9125 137.601 38.9125C137.599 38.9125 137.598 38.9125 137.596 38.9125C137.594 38.9125 137.592 38.9125 137.59 38.9125C137.588 38.9125 137.586 38.9125 137.584 38.9125C137.582 38.9125 137.58 38.9125 137.579 38.9125C137.577 38.9125 137.575 38.9125 137.573 38.9125C137.571 38.9125 137.569 38.9125 137.567 38.9125C137.565 38.9125 137.563 38.9125 137.561 38.9125C137.559 38.9125 137.558 38.9125 137.556 38.9125C137.554 38.9125 137.552 38.9125 137.55 38.9125V44.9125C137.552 44.9125 137.554 44.9125 137.556 44.9125C137.558 44.9125 137.559 44.9125 137.561 44.9125C137.563 44.9125 137.565 44.9125 137.567 44.9125C137.569 44.9125 137.571 44.9125 137.573 44.9125C137.575 44.9125 137.577 44.9125 137.579 44.9125C137.58 44.9125 137.582 44.9125 137.584 44.9125C137.586 44.9125 137.588 44.9125 137.59 44.9125C137.592 44.9125 137.594 44.9125 137.596 44.9125C137.598 44.9125 137.599 44.9125 137.601 44.9125C137.603 44.9125 137.605 44.9125 137.607 44.9125C137.609 44.9125 137.611 44.9125 137.613 44.9125C137.615 44.9125 137.617 44.9125 137.618 44.9125C137.62 44.9125 137.622 44.9125 137.624 44.9125C137.626 44.9125 137.628 44.9125 137.63 44.9125C137.632 44.9125 137.634 44.9125 137.636 44.9125C137.637 44.9125 137.639 44.9125 137.641 44.9125C137.643 44.9125 137.645 44.9125 137.647 44.9125C137.649 44.9125 137.651 44.9125 137.653 44.9125C137.655 44.9125 137.656 44.9125 137.658 44.9125C137.66 44.9125 137.662 44.9125 137.664 44.9125C137.666 44.9125 137.668 44.9125 137.67 44.9125C137.672 44.9125 137.674 44.9125 137.675 44.9125C137.677 44.9125 137.679 44.9125 137.681 44.9125C137.683 44.9125 137.685 44.9125 137.687 44.9125C137.689 44.9125 137.691 44.9125 137.693 44.9125C137.694 44.9125 137.696 44.9125 137.698 44.9125C137.7 44.9125 137.702 44.9125 137.704 44.9125C137.706 44.9125 137.708 44.9125 137.71 44.9125C137.711 44.9125 137.713 44.9125 137.715 44.9125C137.717 44.9125 137.719 44.9125 137.721 44.9125C137.723 44.9125 137.725 44.9125 137.727 44.9125C137.729 44.9125 137.73 44.9125 137.732 44.9125C137.734 44.9125 137.736 44.9125 137.738 44.9125C137.74 44.9125 137.742 44.9125 137.744 44.9125C137.746 44.9125 137.747 44.9125 137.749 44.9125C137.751 44.9125 137.753 44.9125 137.755 44.9125C137.757 44.9125 137.759 44.9125 137.761 44.9125C137.763 44.9125 137.765 44.9125 137.766 44.9125C137.768 44.9125 137.77 44.9125 137.772 44.9125C137.774 44.9125 137.776 44.9125 137.778 44.9125C137.78 44.9125 137.782 44.9125 137.783 44.9125C137.785 44.9125 137.787 44.9125 137.789 44.9125C137.791 44.9125 137.793 44.9125 137.795 44.9125C137.797 44.9125 137.799 44.9125 137.8 44.9125C137.802 44.9125 137.804 44.9125 137.806 44.9125C137.808 44.9125 137.81 44.9125 137.812 44.9125C137.814 44.9125 137.816 44.9125 137.818 44.9125C137.819 44.9125 137.821 44.9125 137.823 44.9125C137.825 44.9125 137.827 44.9125 137.829 44.9125C137.831 44.9125 137.833 44.9125 137.835 44.9125C137.836 44.9125 137.838 44.9125 137.84 44.9125C137.842 44.9125 137.844 44.9125 137.846 44.9125C137.848 44.9125 137.85 44.9125 137.852 44.9125C137.853 44.9125 137.855 44.9125 137.857 44.9125C137.859 44.9125 137.861 44.9125 137.863 44.9125C137.865 44.9125 137.867 44.9125 137.869 44.9125C137.87 44.9125 137.872 44.9125 137.874 44.9125C137.876 44.9125 137.878 44.9125 137.88 44.9125C137.882 44.9125 137.884 44.9125 137.886 44.9125C137.887 44.9125 137.889 44.9125 137.891 44.9125C137.893 44.9125 137.895 44.9125 137.897 44.9125C137.899 44.9125 137.901 44.9125 137.902 44.9125C137.904 44.9125 137.906 44.9125 137.908 44.9125C137.91 44.9125 137.912 44.9125 137.914 44.9125C137.916 44.9125 137.918 44.9125 137.919 44.9125C137.921 44.9125 137.923 44.9125 137.925 44.9125C137.927 44.9125 137.929 44.9125 137.931 44.9125C137.933 44.9125 137.935 44.9125 137.936 44.9125C137.938 44.9125 137.94 44.9125 137.942 44.9125C137.944 44.9125 137.946 44.9125 137.948 44.9125C137.95 44.9125 137.952 44.9125 137.953 44.9125C137.955 44.9125 137.957 44.9125 137.959 44.9125C137.961 44.9125 137.963 44.9125 137.965 44.9125C137.967 44.9125 137.968 44.9125 137.97 44.9125C137.972 44.9125 137.974 44.9125 137.976 44.9125C137.978 44.9125 137.98 44.9125 137.982 44.9125C137.984 44.9125 137.985 44.9125 137.987 44.9125C137.989 44.9125 137.991 44.9125 137.993 44.9125C137.995 44.9125 137.997 44.9125 137.999 44.9125C138 44.9125 138.002 44.9125 138.004 44.9125C138.006 44.9125 138.008 44.9125 138.01 44.9125C138.012 44.9125 138.014 44.9125 138.016 44.9125C138.017 44.9125 138.019 44.9125 138.021 44.9125C138.023 44.9125 138.025 44.9125 138.027 44.9125C138.029 44.9125 138.031 44.9125 138.032 44.9125C138.034 44.9125 138.036 44.9125 138.038 44.9125C138.04 44.9125 138.042 44.9125 138.044 44.9125C138.046 44.9125 138.047 44.9125 138.049 44.9125C138.051 44.9125 138.053 44.9125 138.055 44.9125C138.057 44.9125 138.059 44.9125 138.061 44.9125C138.063 44.9125 138.064 44.9125 138.066 44.9125C138.068 44.9125 138.07 44.9125 138.072 44.9125C138.074 44.9125 138.076 44.9125 138.078 44.9125C138.079 44.9125 138.081 44.9125 138.083 44.9125C138.085 44.9125 138.087 44.9125 138.089 44.9125C138.091 44.9125 138.093 44.9125 138.094 44.9125C138.096 44.9125 138.098 44.9125 138.1 44.9125C138.102 44.9125 138.104 44.9125 138.106 44.9125C138.108 44.9125 138.109 44.9125 138.111 44.9125C138.113 44.9125 138.115 44.9125 138.117 44.9125C138.119 44.9125 138.121 44.9125 138.123 44.9125C138.124 44.9125 138.126 44.9125 138.128 44.9125C138.13 44.9125 138.132 44.9125 138.134 44.9125C138.136 44.9125 138.138 44.9125 138.139 44.9125C138.141 44.9125 138.143 44.9125 138.145 44.9125C138.147 44.9125 138.149 44.9125 138.151 44.9125C138.153 44.9125 138.154 44.9125 138.156 44.9125C138.158 44.9125 138.16 44.9125 138.162 44.9125C138.164 44.9125 138.166 44.9125 138.168 44.9125C138.169 44.9125 138.171 44.9125 138.173 44.9125C138.175 44.9125 138.177 44.9125 138.179 44.9125C138.181 44.9125 138.183 44.9125 138.184 44.9125C138.186 44.9125 138.188 44.9125 138.19 44.9125C138.192 44.9125 138.194 44.9125 138.196 44.9125C138.198 44.9125 138.199 44.9125 138.201 44.9125C138.203 44.9125 138.205 44.9125 138.207 44.9125C138.209 44.9125 138.211 44.9125 138.212 44.9125C138.214 44.9125 138.216 44.9125 138.218 44.9125C138.22 44.9125 138.222 44.9125 138.224 44.9125C138.226 44.9125 138.227 44.9125 138.229 44.9125C138.231 44.9125 138.233 44.9125 138.235 44.9125C138.237 44.9125 138.239 44.9125 138.241 44.9125C138.242 44.9125 138.244 44.9125 138.246 44.9125C138.248 44.9125 138.25 44.9125 138.252 44.9125C138.254 44.9125 138.255 44.9125 138.257 44.9125C138.259 44.9125 138.261 44.9125 138.263 44.9125C138.265 44.9125 138.267 44.9125 138.269 44.9125C138.27 44.9125 138.272 44.9125 138.274 44.9125C138.276 44.9125 138.278 44.9125 138.28 44.9125C138.282 44.9125 138.284 44.9125 138.285 44.9125C138.287 44.9125 138.289 44.9125 138.291 44.9125C138.293 44.9125 138.295 44.9125 138.297 44.9125C138.298 44.9125 138.3 44.9125 138.302 44.9125C138.304 44.9125 138.306 44.9125 138.308 44.9125C138.31 44.9125 138.312 44.9125 138.313 44.9125C138.315 44.9125 138.317 44.9125 138.319 44.9125C138.321 44.9125 138.323 44.9125 138.325 44.9125C138.326 44.9125 138.328 44.9125 138.33 44.9125C138.332 44.9125 138.334 44.9125 138.336 44.9125C138.338 44.9125 138.339 44.9125 138.341 44.9125C138.343 44.9125 138.345 44.9125 138.347 44.9125C138.349 44.9125 138.351 44.9125 138.353 44.9125C138.354 44.9125 138.356 44.9125 138.358 44.9125C138.36 44.9125 138.362 44.9125 138.364 44.9125C138.366 44.9125 138.367 44.9125 138.369 44.9125C138.371 44.9125 138.373 44.9125 138.375 44.9125C138.377 44.9125 138.379 44.9125 138.38 44.9125C138.382 44.9125 138.384 44.9125 138.386 44.9125C138.388 44.9125 138.39 44.9125 138.392 44.9125C138.394 44.9125 138.395 44.9125 138.397 44.9125C138.399 44.9125 138.401 44.9125 138.403 44.9125C138.405 44.9125 138.407 44.9125 138.408 44.9125C138.41 44.9125 138.412 44.9125 138.414 44.9125C138.416 44.9125 138.418 44.9125 138.42 44.9125C138.421 44.9125 138.423 44.9125 138.425 44.9125C138.427 44.9125 138.429 44.9125 138.431 44.9125C138.433 44.9125 138.434 44.9125 138.436 44.9125C138.438 44.9125 138.44 44.9125 138.442 44.9125C138.444 44.9125 138.446 44.9125 138.447 44.9125C138.449 44.9125 138.451 44.9125 138.453 44.9125C138.455 44.9125 138.457 44.9125 138.459 44.9125C138.46 44.9125 138.462 44.9125 138.464 44.9125C138.466 44.9125 138.468 44.9125 138.47 44.9125C138.472 44.9125 138.473 44.9125 138.475 44.9125C138.477 44.9125 138.479 44.9125 138.481 44.9125C138.483 44.9125 138.485 44.9125 138.486 44.9125C138.488 44.9125 138.49 44.9125 138.492 44.9125C138.494 44.9125 138.496 44.9125 138.498 44.9125C138.499 44.9125 138.501 44.9125 138.503 44.9125C138.505 44.9125 138.507 44.9125 138.509 44.9125C138.511 44.9125 138.512 44.9125 138.514 44.9125C138.516 44.9125 138.518 44.9125 138.52 44.9125C138.522 44.9125 138.524 44.9125 138.525 44.9125C138.527 44.9125 138.529 44.9125 138.531 44.9125C138.533 44.9125 138.535 44.9125 138.537 44.9125C138.538 44.9125 138.54 44.9125 138.542 44.9125C138.544 44.9125 138.546 44.9125 138.548 44.9125C138.55 44.9125 138.551 44.9125 138.553 44.9125C138.555 44.9125 138.557 44.9125 138.559 44.9125C138.561 44.9125 138.563 44.9125 138.564 44.9125C138.566 44.9125 138.568 44.9125 138.57 44.9125C138.572 44.9125 138.574 44.9125 138.575 44.9125C138.577 44.9125 138.579 44.9125 138.581 44.9125C138.583 44.9125 138.585 44.9125 138.587 44.9125C138.588 44.9125 138.59 44.9125 138.592 44.9125C138.594 44.9125 138.596 44.9125 138.598 44.9125C138.6 44.9125 138.601 44.9125 138.603 44.9125C138.605 44.9125 138.607 44.9125 138.609 44.9125C138.611 44.9125 138.613 44.9125 138.614 44.9125C138.616 44.9125 138.618 44.9125 138.62 44.9125C138.622 44.9125 138.624 44.9125 138.625 44.9125C138.627 44.9125 138.629 44.9125 138.631 44.9125C138.633 44.9125 138.635 44.9125 138.637 44.9125C138.638 44.9125 138.64 44.9125 138.642 44.9125C138.644 44.9125 138.646 44.9125 138.648 44.9125C138.649 44.9125 138.651 44.9125 138.653 44.9125C138.655 44.9125 138.657 44.9125 138.659 44.9125C138.661 44.9125 138.662 44.9125 138.664 44.9125C138.666 44.9125 138.668 44.9125 138.67 44.9125C138.672 44.9125 138.674 44.9125 138.675 44.9125C138.677 44.9125 138.679 44.9125 138.681 44.9125C138.683 44.9125 138.685 44.9125 138.686 44.9125C138.688 44.9125 138.69 44.9125 138.692 44.9125C138.694 44.9125 138.696 44.9125 138.698 44.9125C138.699 44.9125 138.701 44.9125 138.703 44.9125C138.705 44.9125 138.707 44.9125 138.709 44.9125C138.71 44.9125 138.712 44.9125 138.714 44.9125C138.716 44.9125 138.718 44.9125 138.72 44.9125C138.722 44.9125 138.723 44.9125 138.725 44.9125C138.727 44.9125 138.729 44.9125 138.731 44.9125C138.733 44.9125 138.734 44.9125 138.736 44.9125C138.738 44.9125 138.74 44.9125 138.742 44.9125C138.744 44.9125 138.745 44.9125 138.747 44.9125C138.749 44.9125 138.751 44.9125 138.753 44.9125C138.755 44.9125 138.757 44.9125 138.758 44.9125C138.76 44.9125 138.762 44.9125 138.764 44.9125C138.766 44.9125 138.768 44.9125 138.769 44.9125C138.771 44.9125 138.773 44.9125 138.775 44.9125C138.777 44.9125 138.779 44.9125 138.78 44.9125C138.782 44.9125 138.784 44.9125 138.786 44.9125C138.788 44.9125 138.79 44.9125 138.792 44.9125C138.793 44.9125 138.795 44.9125 138.797 44.9125C138.799 44.9125 138.801 44.9125 138.803 44.9125C138.804 44.9125 138.806 44.9125 138.808 44.9125C138.81 44.9125 138.812 44.9125 138.814 44.9125C138.815 44.9125 138.817 44.9125 138.819 44.9125C138.821 44.9125 138.823 44.9125 138.825 44.9125C138.826 44.9125 138.828 44.9125 138.83 44.9125C138.832 44.9125 138.834 44.9125 138.836 44.9125C138.838 44.9125 138.839 44.9125 138.841 44.9125C138.843 44.9125 138.845 44.9125 138.847 44.9125C138.849 44.9125 138.85 44.9125 138.852 44.9125C138.854 44.9125 138.856 44.9125 138.858 44.9125C138.86 44.9125 138.861 44.9125 138.863 44.9125C138.865 44.9125 138.867 44.9125 138.869 44.9125C138.871 44.9125 138.872 44.9125 138.874 44.9125C138.876 44.9125 138.878 44.9125 138.88 44.9125C138.882 44.9125 138.883 44.9125 138.885 44.9125C138.887 44.9125 138.889 44.9125 138.891 44.9125C138.893 44.9125 138.894 44.9125 138.896 44.9125C138.898 44.9125 138.9 44.9125 138.902 44.9125C138.904 44.9125 138.906 44.9125 138.907 44.9125C138.909 44.9125 138.911 44.9125 138.913 44.9125C138.915 44.9125 138.917 44.9125 138.918 44.9125C138.92 44.9125 138.922 44.9125 138.924 44.9125C138.926 44.9125 138.928 44.9125 138.929 44.9125C138.931 44.9125 138.933 44.9125 138.935 44.9125C138.937 44.9125 138.939 44.9125 138.94 44.9125C138.942 44.9125 138.944 44.9125 138.946 44.9125C138.948 44.9125 138.95 44.9125 138.951 44.9125C138.953 44.9125 138.955 44.9125 138.957 44.9125C138.959 44.9125 138.961 44.9125 138.962 44.9125C138.964 44.9125 138.966 44.9125 138.968 44.9125C138.97 44.9125 138.972 44.9125 138.973 44.9125C138.975 44.9125 138.977 44.9125 138.979 44.9125C138.981 44.9125 138.982 44.9125 138.984 44.9125C138.986 44.9125 138.988 44.9125 138.99 44.9125C138.992 44.9125 138.993 44.9125 138.995 44.9125C138.997 44.9125 138.999 44.9125 139.001 44.9125C139.003 44.9125 139.004 44.9125 139.006 44.9125C139.008 44.9125 139.01 44.9125 139.012 44.9125C139.014 44.9125 139.015 44.9125 139.017 44.9125C139.019 44.9125 139.021 44.9125 139.023 44.9125C139.025 44.9125 139.026 44.9125 139.028 44.9125C139.03 44.9125 139.032 44.9125 139.034 44.9125C139.036 44.9125 139.037 44.9125 139.039 44.9125C139.041 44.9125 139.043 44.9125 139.045 44.9125C139.047 44.9125 139.048 44.9125 139.05 44.9125C139.052 44.9125 139.054 44.9125 139.056 44.9125C139.057 44.9125 139.059 44.9125 139.061 44.9125C139.063 44.9125 139.065 44.9125 139.067 44.9125C139.068 44.9125 139.07 44.9125 139.072 44.9125C139.074 44.9125 139.076 44.9125 139.078 44.9125C139.079 44.9125 139.081 44.9125 139.083 44.9125C139.085 44.9125 139.087 44.9125 139.089 44.9125C139.09 44.9125 139.092 44.9125 139.094 44.9125C139.096 44.9125 139.098 44.9125 139.099 44.9125C139.101 44.9125 139.103 44.9125 139.105 44.9125C139.107 44.9125 139.109 44.9125 139.11 44.9125C139.112 44.9125 139.114 44.9125 139.116 44.9125C139.118 44.9125 139.12 44.9125 139.121 44.9125C139.123 44.9125 139.125 44.9125 139.127 44.9125C139.129 44.9125 139.131 44.9125 139.132 44.9125C139.134 44.9125 139.136 44.9125 139.138 44.9125C139.14 44.9125 139.141 44.9125 139.143 44.9125C139.145 44.9125 139.147 44.9125 139.149 44.9125C139.151 44.9125 139.152 44.9125 139.154 44.9125C139.156 44.9125 139.158 44.9125 139.16 44.9125C139.161 44.9125 139.163 44.9125 139.165 44.9125C139.167 44.9125 139.169 44.9125 139.171 44.9125C139.172 44.9125 139.174 44.9125 139.176 44.9125C139.178 44.9125 139.18 44.9125 139.182 44.9125C139.183 44.9125 139.185 44.9125 139.187 44.9125C139.189 44.9125 139.191 44.9125 139.192 44.9125C139.194 44.9125 139.196 44.9125 139.198 44.9125C139.2 44.9125 139.202 44.9125 139.203 44.9125C139.205 44.9125 139.207 44.9125 139.209 44.9125C139.211 44.9125 139.212 44.9125 139.214 44.9125C139.216 44.9125 139.218 44.9125 139.22 44.9125C139.222 44.9125 139.223 44.9125 139.225 44.9125C139.227 44.9125 139.229 44.9125 139.231 44.9125C139.232 44.9125 139.234 44.9125 139.236 44.9125C139.238 44.9125 139.24 44.9125 139.242 44.9125C139.243 44.9125 139.245 44.9125 139.247 44.9125C139.249 44.9125 139.251 44.9125 139.252 44.9125C139.254 44.9125 139.256 44.9125 139.258 44.9125C139.26 44.9125 139.262 44.9125 139.263 44.9125C139.265 44.9125 139.267 44.9125 139.269 44.9125C139.271 44.9125 139.272 44.9125 139.274 44.9125C139.276 44.9125 139.278 44.9125 139.28 44.9125C139.282 44.9125 139.283 44.9125 139.285 44.9125C139.287 44.9125 139.289 44.9125 139.291 44.9125C139.292 44.9125 139.294 44.9125 139.296 44.9125C139.298 44.9125 139.3 44.9125 139.301 44.9125C139.303 44.9125 139.305 44.9125 139.307 44.9125C139.309 44.9125 139.311 44.9125 139.312 44.9125C139.314 44.9125 139.316 44.9125 139.318 44.9125C139.32 44.9125 139.321 44.9125 139.323 44.9125C139.325 44.9125 139.327 44.9125 139.329 44.9125C139.331 44.9125 139.332 44.9125 139.334 44.9125C139.336 44.9125 139.338 44.9125 139.34 44.9125C139.341 44.9125 139.343 44.9125 139.345 44.9125C139.347 44.9125 139.349 44.9125 139.35 44.9125C139.352 44.9125 139.354 44.9125 139.356 44.9125C139.358 44.9125 139.359 44.9125 139.361 44.9125C139.363 44.9125 139.365 44.9125 139.367 44.9125C139.369 44.9125 139.37 44.9125 139.372 44.9125C139.374 44.9125 139.376 44.9125 139.378 44.9125C139.379 44.9125 139.381 44.9125 139.383 44.9125C139.385 44.9125 139.387 44.9125 139.388 44.9125C139.39 44.9125 139.392 44.9125 139.394 44.9125C139.396 44.9125 139.398 44.9125 139.399 44.9125C139.401 44.9125 139.403 44.9125 139.405 44.9125C139.407 44.9125 139.408 44.9125 139.41 44.9125C139.412 44.9125 139.414 44.9125 139.416 44.9125C139.417 44.9125 139.419 44.9125 139.421 44.9125C139.423 44.9125 139.425 44.9125 139.426 44.9125C139.428 44.9125 139.43 44.9125 139.432 44.9125C139.434 44.9125 139.435 44.9125 139.437 44.9125C139.439 44.9125 139.441 44.9125 139.443 44.9125C139.445 44.9125 139.446 44.9125 139.448 44.9125C139.45 44.9125 139.452 44.9125 139.454 44.9125C139.455 44.9125 139.457 44.9125 139.459 44.9125C139.461 44.9125 139.463 44.9125 139.464 44.9125C139.466 44.9125 139.468 44.9125 139.47 44.9125C139.472 44.9125 139.473 44.9125 139.475 44.9125C139.477 44.9125 139.479 44.9125 139.481 44.9125C139.482 44.9125 139.484 44.9125 139.486 44.9125C139.488 44.9125 139.49 44.9125 139.491 44.9125C139.493 44.9125 139.495 44.9125 139.497 44.9125C139.499 44.9125 139.5 44.9125 139.502 44.9125C139.504 44.9125 139.506 44.9125 139.508 44.9125C139.51 44.9125 139.511 44.9125 139.513 44.9125C139.515 44.9125 139.517 44.9125 139.519 44.9125C139.52 44.9125 139.522 44.9125 139.524 44.9125C139.526 44.9125 139.528 44.9125 139.529 44.9125C139.531 44.9125 139.533 44.9125 139.535 44.9125C139.537 44.9125 139.538 44.9125 139.54 44.9125C139.542 44.9125 139.544 44.9125 139.546 44.9125C139.547 44.9125 139.549 44.9125 139.551 44.9125C139.553 44.9125 139.555 44.9125 139.556 44.9125C139.558 44.9125 139.56 44.9125 139.562 44.9125C139.564 44.9125 139.565 44.9125 139.567 44.9125C139.569 44.9125 139.571 44.9125 139.573 44.9125C139.574 44.9125 139.576 44.9125 139.578 44.9125C139.58 44.9125 139.582 44.9125 139.583 44.9125C139.585 44.9125 139.587 44.9125 139.589 44.9125C139.591 44.9125 139.592 44.9125 139.594 44.9125C139.596 44.9125 139.598 44.9125 139.6 44.9125C139.601 44.9125 139.603 44.9125 139.605 44.9125C139.607 44.9125 139.609 44.9125 139.61 44.9125C139.612 44.9125 139.614 44.9125 139.616 44.9125C139.618 44.9125 139.619 44.9125 139.621 44.9125C139.623 44.9125 139.625 44.9125 139.627 44.9125C139.628 44.9125 139.63 44.9125 139.632 44.9125C139.634 44.9125 139.636 44.9125 139.637 44.9125C139.639 44.9125 139.641 44.9125 139.643 44.9125C139.645 44.9125 139.646 44.9125 139.648 44.9125C139.65 44.9125 139.652 44.9125 139.653 44.9125C139.655 44.9125 139.657 44.9125 139.659 44.9125C139.661 44.9125 139.662 44.9125 139.664 44.9125C139.666 44.9125 139.668 44.9125 139.67 44.9125C139.671 44.9125 139.673 44.9125 139.675 44.9125C139.677 44.9125 139.679 44.9125 139.68 44.9125C139.682 44.9125 139.684 44.9125 139.686 44.9125C139.688 44.9125 139.689 44.9125 139.691 44.9125C139.693 44.9125 139.695 44.9125 139.697 44.9125C139.698 44.9125 139.7 44.9125 139.702 44.9125C139.704 44.9125 139.706 44.9125 139.707 44.9125C139.709 44.9125 139.711 44.9125 139.713 44.9125C139.714 44.9125 139.716 44.9125 139.718 44.9125C139.72 44.9125 139.722 44.9125 139.723 44.9125C139.725 44.9125 139.727 44.9125 139.729 44.9125C139.731 44.9125 139.732 44.9125 139.734 44.9125C139.736 44.9125 139.738 44.9125 139.74 44.9125C139.741 44.9125 139.743 44.9125 139.745 44.9125C139.747 44.9125 139.749 44.9125 139.75 44.9125C139.752 44.9125 139.754 44.9125 139.756 44.9125C139.757 44.9125 139.759 44.9125 139.761 44.9125C139.763 44.9125 139.765 44.9125 139.766 44.9125C139.768 44.9125 139.77 44.9125 139.772 44.9125C139.774 44.9125 139.775 44.9125 139.777 44.9125C139.779 44.9125 139.781 44.9125 139.783 44.9125C139.784 44.9125 139.786 44.9125 139.788 44.9125C139.79 44.9125 139.791 44.9125 139.793 44.9125C139.795 44.9125 139.797 44.9125 139.799 44.9125C139.8 44.9125 139.802 44.9125 139.804 44.9125C139.806 44.9125 139.808 44.9125 139.809 44.9125C139.811 44.9125 139.813 44.9125 139.815 44.9125C139.817 44.9125 139.818 44.9125 139.82 44.9125C139.822 44.9125 139.824 44.9125 139.825 44.9125C139.827 44.9125 139.829 44.9125 139.831 44.9125C139.833 44.9125 139.834 44.9125 139.836 44.9125C139.838 44.9125 139.84 44.9125 139.842 44.9125C139.843 44.9125 139.845 44.9125 139.847 44.9125C139.849 44.9125 139.85 44.9125 139.852 44.9125C139.854 44.9125 139.856 44.9125 139.858 44.9125C139.859 44.9125 139.861 44.9125 139.863 44.9125C139.865 44.9125 139.867 44.9125 139.868 44.9125C139.87 44.9125 139.872 44.9125 139.874 44.9125C139.875 44.9125 139.877 44.9125 139.879 44.9125C139.881 44.9125 139.883 44.9125 139.884 44.9125C139.886 44.9125 139.888 44.9125 139.89 44.9125C139.891 44.9125 139.893 44.9125 139.895 44.9125C139.897 44.9125 139.899 44.9125 139.9 44.9125C139.902 44.9125 139.904 44.9125 139.906 44.9125C139.908 44.9125 139.909 44.9125 139.911 44.9125C139.913 44.9125 139.915 44.9125 139.916 44.9125C139.918 44.9125 139.92 44.9125 139.922 44.9125C139.924 44.9125 139.925 44.9125 139.927 44.9125C139.929 44.9125 139.931 44.9125 139.932 44.9125C139.934 44.9125 139.936 44.9125 139.938 44.9125C139.94 44.9125 139.941 44.9125 139.943 44.9125C139.945 44.9125 139.947 44.9125 139.949 44.9125C139.95 44.9125 139.952 44.9125 139.954 44.9125C139.956 44.9125 139.957 44.9125 139.959 44.9125C139.961 44.9125 139.963 44.9125 139.965 44.9125C139.966 44.9125 139.968 44.9125 139.97 44.9125C139.972 44.9125 139.973 44.9125 139.975 44.9125C139.977 44.9125 139.979 44.9125 139.981 44.9125C139.982 44.9125 139.984 44.9125 139.986 44.9125C139.988 44.9125 139.989 44.9125 139.991 44.9125C139.993 44.9125 139.995 44.9125 139.997 44.9125C139.998 44.9125 140 44.9125 140.002 44.9125C140.004 44.9125 140.005 44.9125 140.007 44.9125C140.009 44.9125 140.011 44.9125 140.013 44.9125C140.014 44.9125 140.016 44.9125 140.018 44.9125C140.02 44.9125 140.021 44.9125 140.023 44.9125C140.025 44.9125 140.027 44.9125 140.029 44.9125C140.03 44.9125 140.032 44.9125 140.034 44.9125C140.036 44.9125 140.037 44.9125 140.039 44.9125C140.041 44.9125 140.043 44.9125 140.045 44.9125C140.046 44.9125 140.048 44.9125 140.05 44.9125C140.052 44.9125 140.053 44.9125 140.055 44.9125C140.057 44.9125 140.059 44.9125 140.06 44.9125C140.062 44.9125 140.064 44.9125 140.066 44.9125C140.068 44.9125 140.069 44.9125 140.071 44.9125C140.073 44.9125 140.075 44.9125 140.076 44.9125C140.078 44.9125 140.08 44.9125 140.082 44.9125C140.084 44.9125 140.085 44.9125 140.087 44.9125C140.089 44.9125 140.091 44.9125 140.092 44.9125C140.094 44.9125 140.096 44.9125 140.098 44.9125C140.099 44.9125 140.101 44.9125 140.103 44.9125C140.105 44.9125 140.107 44.9125 140.108 44.9125C140.11 44.9125 140.112 44.9125 140.114 44.9125C140.115 44.9125 140.117 44.9125 140.119 44.9125C140.121 44.9125 140.123 44.9125 140.124 44.9125C140.126 44.9125 140.128 44.9125 140.13 44.9125C140.131 44.9125 140.133 44.9125 140.135 44.9125C140.137 44.9125 140.138 44.9125 140.14 44.9125C140.142 44.9125 140.144 44.9125 140.146 44.9125C140.147 44.9125 140.149 44.9125 140.151 44.9125C140.153 44.9125 140.154 44.9125 140.156 44.9125C140.158 44.9125 140.16 44.9125 140.161 44.9125C140.163 44.9125 140.165 44.9125 140.167 44.9125C140.169 44.9125 140.17 44.9125 140.172 44.9125C140.174 44.9125 140.176 44.9125 140.177 44.9125C140.179 44.9125 140.181 44.9125 140.183 44.9125C140.184 44.9125 140.186 44.9125 140.188 44.9125C140.19 44.9125 140.191 44.9125 140.193 44.9125C140.195 44.9125 140.197 44.9125 140.199 44.9125C140.2 44.9125 140.202 44.9125 140.204 44.9125C140.206 44.9125 140.207 44.9125 140.209 44.9125C140.211 44.9125 140.213 44.9125 140.214 44.9125C140.216 44.9125 140.218 44.9125 140.22 44.9125C140.222 44.9125 140.223 44.9125 140.225 44.9125C140.227 44.9125 140.229 44.9125 140.23 44.9125C140.232 44.9125 140.234 44.9125 140.236 44.9125C140.237 44.9125 140.239 44.9125 140.241 44.9125C140.243 44.9125 140.244 44.9125 140.246 44.9125C140.248 44.9125 140.25 44.9125 140.252 44.9125C140.253 44.9125 140.255 44.9125 140.257 44.9125C140.259 44.9125 140.26 44.9125 140.262 44.9125C140.264 44.9125 140.266 44.9125 140.267 44.9125C140.269 44.9125 140.271 44.9125 140.273 44.9125C140.274 44.9125 140.276 44.9125 140.278 44.9125C140.28 44.9125 140.281 44.9125 140.283 44.9125C140.285 44.9125 140.287 44.9125 140.289 44.9125C140.29 44.9125 140.292 44.9125 140.294 44.9125C140.296 44.9125 140.297 44.9125 140.299 44.9125C140.301 44.9125 140.303 44.9125 140.304 44.9125C140.306 44.9125 140.308 44.9125 140.31 44.9125C140.311 44.9125 140.313 44.9125 140.315 44.9125C140.317 44.9125 140.318 44.9125 140.32 44.9125C140.322 44.9125 140.324 44.9125 140.326 44.9125C140.327 44.9125 140.329 44.9125 140.331 44.9125C140.333 44.9125 140.334 44.9125 140.336 44.9125C140.338 44.9125 140.34 44.9125 140.341 44.9125C140.343 44.9125 140.345 44.9125 140.347 44.9125C140.348 44.9125 140.35 44.9125 140.352 44.9125C140.354 44.9125 140.355 44.9125 140.357 44.9125C140.359 44.9125 140.361 44.9125 140.362 44.9125V38.9125ZM137.55 38.9125C136.817 38.9125 136.082 38.8516 135.343 38.7284L134.357 44.6467C135.417 44.8235 136.482 44.9125 137.55 44.9125V38.9125ZM131.888 41.2136C131.273 45.0558 130.777 49.3353 130.397 54.0464L136.378 54.5287C136.748 49.9398 137.227 45.8193 137.812 42.1615L131.888 41.2136ZM130.394 54.0912C130.089 58.7457 129.937 63.988 129.937 69.8125H135.937C135.937 64.0871 136.086 58.9793 136.381 54.4838L130.394 54.0912ZM129.937 69.8125V106.263H135.937V69.8125H129.937ZM132.937 109.263H148.012V103.263H132.937V109.263ZM145.176 105.286L142.813 112.148L148.487 114.102L150.849 107.239L145.176 105.286ZM145.65 110.125H132.937V116.125H145.65V110.125ZM129.937 113.125V140.8H135.937V113.125H129.937ZM129.937 140.8C129.937 147.078 129.863 152.557 129.714 157.242L135.711 157.433C135.862 152.668 135.937 147.122 135.937 140.8H129.937ZM129.714 157.241C129.568 161.776 129.167 165.786 128.524 169.283L134.426 170.367C135.133 166.515 135.557 162.199 135.711 157.434L129.714 157.241ZM128.526 169.272C127.891 172.662 126.947 175.683 125.714 178.355L131.161 180.87C132.628 177.692 133.709 174.189 134.424 170.378L128.526 169.272ZM125.726 178.328C124.509 180.897 122.794 183.485 120.543 186.088L125.082 190.012C127.631 187.065 129.666 184.028 131.149 180.897L125.726 178.328ZM120.552 186.077C116.806 190.369 111.495 193.991 104.466 196.86L106.734 202.415C114.405 199.284 120.569 195.181 125.072 190.023L120.552 186.077ZM104.466 196.86C97.5719 199.674 89.055 201.138 78.8249 201.138V207.138C89.5949 207.138 98.928 205.601 106.734 202.415L104.466 196.86ZM78.8249 201.138C72.6579 201.138 66.8063 200.278 61.2572 198.57L59.4927 204.305C65.6436 206.197 72.092 207.138 78.8249 207.138V201.138ZM61.2572 198.57C55.6875 196.856 50.8564 194.483 46.7294 191.476L43.1955 196.324C47.9185 199.767 53.3624 202.419 59.4927 204.305L61.2572 198.57ZM46.7294 191.476C42.6219 188.482 39.3844 184.925 36.9788 180.801L31.7961 183.824C34.6405 188.7 38.453 192.868 43.1955 196.324L46.7294 191.476ZM36.9788 180.801C34.6353 176.783 33.4499 172.322 33.4499 167.35H27.4499C27.4499 173.328 28.8896 178.842 31.7961 183.824L36.9788 180.801ZM33.4499 167.35C33.4499 163.615 34.0374 160.361 35.1523 157.541L29.5726 155.335C28.1375 158.964 27.4499 162.985 27.4499 167.35H33.4499ZM35.1298 157.596C36.3701 154.633 37.9389 152.051 39.825 149.828L35.2499 145.947C32.936 148.674 31.0548 151.792 29.5951 155.279L35.1298 157.596ZM39.8532 149.795C41.8048 147.425 43.91 145.428 46.1645 143.789L42.6354 138.936C39.9399 140.897 37.4701 143.25 35.2217 145.98L39.8532 149.795ZM46.13 143.813C48.576 142.087 50.9214 140.668 53.1666 139.546L50.4833 134.179C47.9285 135.457 45.3239 137.038 42.6699 138.912L46.13 143.813ZM53.1666 139.546C55.4825 138.388 57.5347 137.507 59.3313 136.885L57.3686 131.215C55.2652 131.943 52.9674 132.937 50.4833 134.179L53.1666 139.546ZM59.3313 136.885C61.2627 136.216 62.6004 135.811 63.412 135.623L62.0629 129.777C60.9245 130.04 59.3372 130.534 57.3686 131.215L59.3313 136.885ZM60.0411 134.015L62.2911 138.628L67.6838 135.997L65.4338 131.385L60.0411 134.015ZM63.5998 134.653C61.7072 135.64 59.6302 136.964 57.3779 138.595L60.897 143.455C62.9947 141.936 64.8177 140.785 66.3751 139.972L63.5998 134.653ZM57.3937 138.584C55.0218 140.278 52.8321 142.441 50.8109 145.028L55.539 148.722C57.2678 146.509 59.0531 144.772 60.8812 143.466L57.3937 138.584ZM50.8397 144.992C48.7285 147.61 47.0084 150.752 45.6435 154.365L51.2564 156.485C52.4415 153.348 53.8714 150.79 55.5102 148.758L50.8397 144.992ZM45.6435 154.365C44.2114 158.156 43.5374 162.506 43.5374 167.35H49.5374C49.5374 163.044 50.1385 159.444 51.2564 156.485L45.6435 154.365ZM43.5374 167.35C43.5374 172.566 44.4212 177.36 46.2495 181.681L51.7753 179.344C50.3037 175.865 49.5374 171.884 49.5374 167.35H43.5374ZM46.2578 181.701C48.0661 185.893 50.5924 189.507 53.8401 192.504L57.9098 188.096C55.3075 185.693 53.2588 182.782 51.7671 179.324L46.2578 181.701ZM53.8994 192.558C57.2081 195.453 61.0722 197.663 65.4542 199.205L67.4457 193.545C63.7277 192.237 60.5417 190.397 57.8505 188.042L53.8994 192.558ZM65.5168 199.226C69.9776 200.686 74.7966 201.4 79.9499 201.4V195.4C75.3533 195.4 71.1723 194.764 67.3831 193.524L65.5168 199.226ZM79.9499 201.4C85.6986 201.4 91.0122 200.612 95.8611 198.996L93.9638 193.304C89.8127 194.688 85.1513 195.4 79.9499 195.4V201.4ZM95.8471 199.001C100.908 197.341 105.25 194.546 108.826 190.638L104.399 186.587C101.525 189.729 98.0666 191.959 93.9778 193.299L95.8471 199.001ZM108.826 190.638C112.423 186.706 115.122 181.592 117.017 175.432L111.283 173.668C109.578 179.208 107.252 183.469 104.399 186.587L108.826 190.638ZM117.017 175.432C118.934 169.204 119.85 161.609 119.85 152.725H113.85C113.85 161.241 112.966 168.196 111.283 173.668L117.017 175.432ZM119.85 152.725V113.125H113.85V152.725H119.85ZM116.85 110.125H95.0249V116.125H116.85V110.125ZM97.8756 114.06L100.126 107.197L94.4243 105.328L92.1743 112.19L97.8756 114.06ZM97.2749 109.263H116.85V103.263H97.2749V109.263ZM153.75 12.7C149.565 12.7 145.772 14.2586 142.445 17.1474L146.38 21.6776C148.753 19.6165 151.184 18.7 153.75 18.7V12.7ZM142.48 17.1178C139.002 20.0469 136.415 24.7974 134.468 30.8719L140.182 32.7032C141.985 27.0777 144.123 23.5781 146.345 21.7073L142.48 17.1178ZM136.847 34.7493C139.224 35.1326 141.531 35.4403 143.766 35.6716L144.384 29.7035C142.269 29.4847 140.076 29.1924 137.803 28.8258L136.847 34.7493ZM143.766 35.6716C146.032 35.906 148.198 36.025 150.262 36.025V30.025C148.427 30.025 146.468 29.9191 144.384 29.7035L143.766 35.6716ZM150.262 36.025C152.53 36.025 154.627 35.7331 156.475 35.0526L154.4 29.4225C153.398 29.7919 152.044 30.025 150.262 30.025V36.025ZM156.552 35.023C158.331 34.3112 159.905 33.3623 161.159 32.1089L156.916 27.8662C156.37 28.4128 155.544 28.9639 154.323 29.4521L156.552 35.023ZM161.159 32.1089C162.331 30.9363 163.239 29.5853 163.848 28.0642L158.277 25.8359C157.985 26.5647 157.544 27.2387 156.916 27.8662L161.159 32.1089ZM163.848 28.0642C164.429 26.6124 164.737 25.1102 164.737 23.575H158.737C158.737 24.2898 158.596 25.0377 158.277 25.8359L163.848 28.0642ZM164.737 23.575C164.737 20.6269 163.687 18.0196 161.609 15.9412L157.366 20.1839C158.288 21.1055 158.737 22.1731 158.737 23.575H164.737ZM161.66 15.9936C159.551 13.7798 156.833 12.7 153.75 12.7V18.7C155.317 18.7 156.423 19.1953 157.315 20.1315L161.66 15.9936Z" fill="#2E2E2E"/>
</g>
<defs>
<filter id="filter0_d" x="0.487457" y="0.512531" width="183.225" height="224.625" filterUnits="userSpaceOnUse" color-interpolation-filters="sRGB">
<feFlood flood-opacity="0" result="BackgroundImageFix"/>
<feColorMatrix in="SourceAlpha" type="matrix" values="0 0 0 0 0 0 0 0 0 0 0 0 0 0 0 0 0 0 127 0"/>
<feOffset dy="6"/>
<feGaussianBlur stdDeviation="6"/>
<feColorMatrix type="matrix" values="0 0 0 0 0.180392 0 0 0 0 0.180392 0 0 0 0 0.180392 0 0 0 0.4 0"/>
<feBlend mode="normal" in2="BackgroundImageFix" result="effect1_dropShadow"/>
<feBlend mode="normal" in="SourceGraphic" in2="effect1_dropShadow" result="shape"/>
</filter>
</defs>
</svg>
