<svg width="62" height="76" viewBox="0 0 62 76" fill="none" xmlns="http://www.w3.org/2000/svg">
<g filter="url(#filter0_d)">
<path d="M38.95 36.0875V29.15C38.95 26.15 39.0375 23.425 39.2125 20.975C39.4125 18.5 39.8375 16.2125 40.4875 14.1125C38.5125 13.8125 36.4875 13.4625 34.4125 13.0625C32.3375 12.6375 30.3 12.2375 28.3 11.8625C26.325 11.4875 24.4375 11.175 22.6375 10.925C20.8625 10.65 19.2625 10.5125 17.8375 10.5125C15.9125 10.5125 14.3125 10.675 13.0375 11C11.7625 11.3 10.7375 11.7125 9.96248 12.2375C9.18748 12.7625 8.63748 13.375 8.31248 14.075C8.01248 14.75 7.86248 15.475 7.86248 16.25C7.86248 17.025 8.03748 17.7375 8.38748 18.3875C8.76248 19.0375 9.28748 19.6125 9.96248 20.1125C10.6375 20.5875 11.4375 20.9625 12.3625 21.2375C13.3125 21.5125 14.3625 21.65 15.5125 21.65C16.7875 21.65 17.9125 21.5125 18.8875 21.2375C19.8875 20.9375 20.7375 20.6125 21.4375 20.2625C22.2625 19.8625 22.9875 19.4 23.6125 18.875L24.3625 20.4875C23.5875 21.0625 22.7375 21.575 21.8125 22.025C21.0125 22.425 20.075 22.7875 19 23.1125C17.95 23.4125 16.7875 23.5625 15.5125 23.5625C13.8375 23.5625 12.35 23.3375 11.05 22.8875C9.77498 22.4375 8.69998 21.8375 7.82498 21.0875C6.94998 20.3125 6.28748 19.4125 5.83748 18.3875C5.38748 17.3625 5.16248 16.275 5.16248 15.125C5.16248 13.9 5.37498 12.7125 5.79998 11.5625C6.19998 10.4125 6.88748 9.38752 7.86248 8.48752C8.81248 7.58752 10.075 6.87502 11.65 6.35002C13.225 5.80002 15.1625 5.52502 17.4625 5.52502C19.5875 5.52502 21.7125 5.70002 23.8375 6.05002C25.9875 6.37502 28.1 6.78752 30.175 7.28752C32.275 7.76252 34.3125 8.28752 36.2875 8.86252C38.2875 9.41252 40.2 9.91252 42.025 10.3625C43.1 8.38752 44.4375 6.81252 46.0375 5.63752C47.6375 4.43752 49.375 3.83752 51.25 3.83752C52.05 3.83752 52.7625 3.97502 53.3875 4.25002C54.0125 4.50002 54.5375 4.83752 54.9625 5.26252C55.3875 5.68752 55.7 6.18752 55.9 6.76252C56.125 7.31252 56.2375 7.90002 56.2375 8.52502C56.2375 9.57502 55.9875 10.4875 55.4875 11.2625C55.0125 12.0125 54.35 12.65 53.5 13.175C52.65 13.675 51.65 14.05 50.5 14.3C49.35 14.525 48.1125 14.6375 46.7875 14.6375C46.4875 14.6375 46.175 14.6375 45.85 14.6375C45.55 14.6375 45.25 14.6125 44.95 14.5625C44.75 15.8125 44.5875 17.2125 44.4625 18.7625C44.3625 20.2875 44.3125 22.0125 44.3125 23.9375V36.0875H49.3375L48.55 38.375H44.3125V47.6C44.3125 49.7 44.2875 51.5375 44.2375 53.1125C44.1875 54.6625 44.05 56.05 43.825 57.275C43.6 58.475 43.2625 59.5625 42.8125 60.5375C42.3625 61.4875 41.7375 62.425 40.9375 63.35C39.5625 64.925 37.65 66.2125 35.2 67.2125C32.75 68.2125 29.775 68.7125 26.275 68.7125C24.125 68.7125 22.075 68.4125 20.125 67.8125C18.175 67.2125 16.4625 66.375 14.9875 65.3C13.5125 64.225 12.3375 62.9375 11.4625 61.4375C10.5875 59.9375 10.15 58.275 10.15 56.45C10.15 55.1 10.3625 53.8875 10.7875 52.8125C11.2375 51.7375 11.8125 50.7875 12.5125 49.9625C13.2125 49.1125 13.975 48.3875 14.8 47.7875C15.65 47.1875 16.475 46.6875 17.275 46.2875C18.075 45.8875 18.8 45.575 19.45 45.35C20.1 45.125 20.5875 44.975 20.9125 44.9L21.6625 46.4375C21.0875 46.7375 20.4375 47.15 19.7125 47.675C19.0125 48.175 18.35 48.825 17.725 49.625C17.1 50.4 16.575 51.35 16.15 52.475C15.725 53.6 15.5125 54.925 15.5125 56.45C15.5125 58.075 15.7875 59.5375 16.3375 60.8375C16.8875 62.1125 17.65 63.2 18.625 64.1C19.625 64.975 20.8 65.65 22.15 66.125C23.525 66.575 25.025 66.8 26.65 66.8C28.475 66.8 30.1375 66.55 31.6375 66.05C33.1625 65.55 34.4625 64.7125 35.5375 63.5375C36.6125 62.3625 37.45 60.8 38.05 58.85C38.65 56.9 38.95 54.475 38.95 51.575V38.375H31.675L32.425 36.0875H38.95ZM51.25 5.90002C50.125 5.90002 49.0875 6.31252 48.1375 7.13752C47.1875 7.93752 46.4 9.31252 45.775 11.2625C46.55 11.3875 47.3 11.4875 48.025 11.5625C48.75 11.6375 49.4375 11.675 50.0875 11.675C50.7625 11.675 51.3375 11.5875 51.8125 11.4125C52.3125 11.2125 52.7125 10.9625 53.0125 10.6625C53.3125 10.3625 53.5375 10.025 53.6875 9.65002C53.8375 9.27502 53.9125 8.90002 53.9125 8.52502C53.9125 7.80002 53.6625 7.18752 53.1625 6.68752C52.6625 6.16252 52.025 5.90002 51.25 5.90002Z" fill="white"/>
<path d="M38.95 36.0875V37.0875H39.95V36.0875H38.95ZM39.2125 20.975L38.2157 20.8945L38.215 20.9038L39.2125 20.975ZM40.4875 14.1125L41.4428 14.4082L41.7863 13.2983L40.6377 13.1239L40.4875 14.1125ZM34.4125 13.0625L34.2118 14.0422L34.2232 14.0444L34.4125 13.0625ZM28.3 11.8625L28.1134 12.845L28.1157 12.8454L28.3 11.8625ZM22.6375 10.925L22.4844 11.9132L22.4921 11.9144L22.4999 11.9155L22.6375 10.925ZM13.0375 11L13.2665 11.9734L13.2755 11.9713L13.2845 11.969L13.0375 11ZM9.96248 12.2375L9.40163 11.4096L9.96248 12.2375ZM8.31248 14.075L7.40547 13.6539L7.40201 13.6614L7.39867 13.6689L8.31248 14.075ZM8.38748 18.3875L7.50701 18.8616L7.51397 18.8745L7.5213 18.8872L8.38748 18.3875ZM9.96248 20.1125L9.36725 20.9161L9.37703 20.9233L9.38699 20.9303L9.96248 20.1125ZM12.3625 21.2375L12.0775 22.1961L12.0844 22.1981L12.3625 21.2375ZM18.8875 21.2375L19.1589 22.2L19.1669 22.1977L19.1748 22.1953L18.8875 21.2375ZM21.4375 20.2625L21.0012 19.3626L20.9903 19.3681L21.4375 20.2625ZM23.6125 18.875L24.5192 18.4533L23.9687 17.2698L22.9693 18.1093L23.6125 18.875ZM24.3625 20.4875L24.9583 21.2906L25.613 20.8049L25.2692 20.0658L24.3625 20.4875ZM21.8125 22.025L21.375 21.1257L21.3653 21.1306L21.8125 22.025ZM19 23.1125L19.2747 24.074L19.2821 24.0719L19.2894 24.0697L19 23.1125ZM11.05 22.8875L10.7172 23.8305L10.7229 23.8325L11.05 22.8875ZM7.82498 21.0875L7.16195 21.8361L7.16803 21.8415L7.17419 21.8468L7.82498 21.0875ZM5.79998 11.5625L6.73798 11.9092L6.74131 11.9001L6.74448 11.891L5.79998 11.5625ZM7.86248 8.48752L8.54082 9.22238L8.55023 9.21347L7.86248 8.48752ZM11.65 6.35002L11.9662 7.2987L11.973 7.29645L11.9797 7.29411L11.65 6.35002ZM23.8375 6.05002L23.675 7.03681L23.688 7.03878L23.8375 6.05002ZM30.175 7.28752L29.9407 8.25978L29.9544 8.26288L30.175 7.28752ZM36.2875 8.86252L36.0079 9.82265L36.0151 9.82474L36.0223 9.82672L36.2875 8.86252ZM42.025 10.3625L41.7856 11.3334L42.5345 11.5181L42.9033 10.8406L42.025 10.3625ZM46.0375 5.63752L46.6294 6.44356L46.6375 6.43752L46.0375 5.63752ZM53.3875 4.25002L52.9847 5.16533L53.0003 5.17218L53.0161 5.17849L53.3875 4.25002ZM55.9 6.76252L54.9555 7.09104L54.9643 7.11635L54.9744 7.14115L55.9 6.76252ZM55.4875 11.2625L54.6472 10.7204L54.6427 10.7275L55.4875 11.2625ZM53.5 13.175L54.007 14.037L54.0163 14.0315L54.0255 14.0258L53.5 13.175ZM50.5 14.3L50.692 15.2814L50.7022 15.2794L50.7124 15.2772L50.5 14.3ZM44.95 14.5625L45.1144 13.5761L44.1216 13.4107L43.9625 14.4045L44.95 14.5625ZM44.4625 18.7625L43.4657 18.6821L43.4651 18.6896L43.4646 18.6971L44.4625 18.7625ZM44.3125 36.0875H43.3125V37.0875H44.3125V36.0875ZM49.3375 36.0875L50.283 36.413L50.7393 35.0875H49.3375V36.0875ZM48.55 38.375V39.375H49.2633L49.4955 38.7005L48.55 38.375ZM44.3125 38.375V37.375H43.3125V38.375H44.3125ZM44.2375 53.1125L45.237 53.1448L45.237 53.1442L44.2375 53.1125ZM43.825 57.275L44.8079 57.4593L44.8085 57.4557L43.825 57.275ZM42.8125 60.5375L43.7163 60.9656L43.7204 60.9566L42.8125 60.5375ZM40.9375 63.35L41.6908 64.0077L41.6938 64.0042L40.9375 63.35ZM10.7875 52.8125L9.86504 52.4264L9.86119 52.4356L9.85752 52.4449L10.7875 52.8125ZM12.5125 49.9625L13.275 50.6095L13.2797 50.6039L13.2844 50.5982L12.5125 49.9625ZM14.8 47.7875L14.2232 46.9705L14.2118 46.9788L14.8 47.7875ZM17.275 46.2875L17.7222 47.1819L17.275 46.2875ZM20.9125 44.9L21.8113 44.4616L21.4626 43.7468L20.6876 43.9256L20.9125 44.9ZM21.6625 46.4375L22.125 47.3241L22.988 46.8739L22.5613 45.9991L21.6625 46.4375ZM19.7125 47.675L20.2937 48.4888L20.299 48.485L19.7125 47.675ZM17.725 49.625L18.5034 50.2528L18.5082 50.2468L18.513 50.2407L17.725 49.625ZM16.3375 60.8375L15.4165 61.2272L15.4193 61.2336L16.3375 60.8375ZM18.625 64.1L17.9467 64.8348L17.9565 64.8438L17.9665 64.8526L18.625 64.1ZM22.15 66.125L21.8181 67.0683L21.8285 67.072L21.8389 67.0754L22.15 66.125ZM31.6375 66.05L31.3259 65.0998L31.3213 65.1013L31.6375 66.05ZM35.5375 63.5375L34.7997 62.8625L35.5375 63.5375ZM38.95 38.375H39.95V37.375H38.95V38.375ZM31.675 38.375L30.7248 38.0635L30.2947 39.375H31.675V38.375ZM32.425 36.0875V35.0875H31.7005L31.4748 35.776L32.425 36.0875ZM48.1375 7.13752L48.7816 7.90243L48.7874 7.89753L48.7932 7.89255L48.1375 7.13752ZM45.775 11.2625L44.8227 10.9573L44.4678 12.0646L45.6157 12.2498L45.775 11.2625ZM51.8125 11.4125L52.1582 12.3509L52.1711 12.3461L52.1839 12.341L51.8125 11.4125ZM53.1625 6.68752L52.4383 7.37717L52.4468 7.386L52.4554 7.39462L53.1625 6.68752ZM39.95 36.0875V29.15H37.95V36.0875H39.95ZM39.95 29.15C39.95 26.1688 40.037 23.4681 40.2099 21.0463L38.215 20.9038C38.038 23.382 37.95 26.1312 37.95 29.15H39.95ZM40.2092 21.0556C40.4041 18.6443 40.817 16.4299 41.4428 14.4082L39.5322 13.8168C38.858 15.9951 38.4209 18.3557 38.2157 20.8945L40.2092 21.0556ZM40.6377 13.1239C38.6765 12.826 36.6645 12.4782 34.6018 12.0806L34.2232 14.0444C36.3104 14.4468 38.3485 14.7991 40.3373 15.1012L40.6377 13.1239ZM34.6131 12.0829C32.5329 11.6568 30.49 11.2557 28.4843 10.8796L28.1157 12.8454C30.11 13.2193 32.1421 13.6182 34.2118 14.0422L34.6131 12.0829ZM28.4865 10.8801C26.497 10.5023 24.5931 10.187 22.7751 9.93452L22.4999 11.9155C24.2819 12.163 26.153 12.4727 28.1134 12.845L28.4865 10.8801ZM22.7906 9.93681C20.9773 9.65588 19.3249 9.51252 17.8375 9.51252V11.5125C19.2 11.5125 20.7476 11.6442 22.4844 11.9132L22.7906 9.93681ZM17.8375 9.51252C15.8638 9.51252 14.174 9.67834 12.7905 10.031L13.2845 11.969C14.4509 11.6717 15.9611 11.5125 17.8375 11.5125V9.51252ZM12.8084 10.0266C11.4587 10.3442 10.309 10.7949 9.40163 11.4096L10.5233 13.0654C11.166 12.6301 12.0663 12.2558 13.2665 11.9734L12.8084 10.0266ZM9.40163 11.4096C8.5085 12.0146 7.82162 12.7576 7.40547 13.6539L9.21949 14.4961C9.45334 13.9925 9.86647 13.5104 10.5233 13.0654L9.40163 11.4096ZM7.39867 13.6689C7.03906 14.478 6.86248 15.3421 6.86248 16.25H8.86248C8.86248 15.6079 8.98591 15.022 9.22629 14.4812L7.39867 13.6689ZM6.86248 16.25C6.86248 17.182 7.07461 18.0586 7.50701 18.8616L9.26795 17.9134C9.00036 17.4164 8.86248 16.8681 8.86248 16.25H6.86248ZM7.5213 18.8872C7.97257 19.6695 8.59523 20.3442 9.36725 20.9161L10.5577 19.309C9.97973 18.8808 9.55239 18.4056 9.25367 17.8878L7.5213 18.8872ZM9.38699 20.9303C10.1641 21.4772 11.0658 21.8953 12.0775 22.1961L12.6475 20.279C11.8091 20.0297 11.1109 19.6978 10.538 19.2947L9.38699 20.9303ZM12.0844 22.1981C13.1381 22.5031 14.2833 22.65 15.5125 22.65V20.65C14.4416 20.65 13.4869 20.5219 12.6405 20.277L12.0844 22.1981ZM15.5125 22.65C16.8567 22.65 18.0763 22.5053 19.1589 22.2L18.616 20.2751C17.7487 20.5197 16.7182 20.65 15.5125 20.65V22.65ZM19.1748 22.1953C20.2129 21.8839 21.1196 21.5395 21.8847 21.1569L20.9903 19.3681C20.3554 19.6855 19.5621 19.9911 18.6001 20.2797L19.1748 22.1953ZM21.8738 21.1623C22.764 20.7307 23.5603 20.2248 24.2557 19.6407L22.9693 18.1093C22.4147 18.5752 21.7609 18.9943 21.0012 19.3627L21.8738 21.1623ZM22.7058 19.2967L23.4558 20.9092L25.2692 20.0658L24.5192 18.4533L22.7058 19.2967ZM23.7666 19.6844C23.0445 20.2202 22.248 20.7011 21.375 21.1258L22.2499 22.9243C23.227 22.4489 24.1305 21.9048 24.9583 21.2906L23.7666 19.6844ZM21.3653 21.1306C20.6269 21.4998 19.7444 21.8428 18.7106 22.1553L19.2894 24.0697C20.4056 23.7323 21.3981 23.3503 22.2597 22.9194L21.3653 21.1306ZM18.7253 22.151C17.7781 22.4216 16.7097 22.5625 15.5125 22.5625V24.5625C16.8653 24.5625 18.1219 24.4034 19.2747 24.074L18.7253 22.151ZM15.5125 22.5625C13.9254 22.5625 12.5518 22.3492 11.3771 21.9425L10.7229 23.8325C12.1481 24.3259 13.7495 24.5625 15.5125 24.5625V22.5625ZM11.3828 21.9445C10.2044 21.5286 9.24231 20.9853 8.47577 20.3283L7.17419 21.8468C8.15765 22.6897 9.34554 23.3464 10.7172 23.8305L11.3828 21.9445ZM8.48802 20.3389C7.7164 19.6555 7.14241 18.8722 6.75313 17.9855L4.92184 18.7895C5.43256 19.9528 6.18357 20.9695 7.16195 21.8361L8.48802 20.3389ZM6.75313 17.9855C6.36029 17.0907 6.16248 16.1405 6.16248 15.125H4.16248C4.16248 16.4095 4.41467 17.6343 4.92184 18.7895L6.75313 17.9855ZM6.16248 15.125C6.16248 14.0184 6.35395 12.9483 6.73798 11.9092L4.86199 11.2159C4.39601 12.4767 4.16248 13.7816 4.16248 15.125H6.16248ZM6.74448 11.891C7.08573 10.9099 7.67545 10.0211 8.54076 9.22232L7.1842 7.75271C6.09952 8.75396 5.31424 9.91508 4.85548 11.234L6.74448 11.891ZM8.55023 9.21347C9.36965 8.43717 10.4938 7.78951 11.9662 7.2987L11.3338 5.40133C9.65617 5.96053 8.25531 6.73786 7.17474 7.76156L8.55023 9.21347ZM11.9797 7.29411C13.417 6.79219 15.2353 6.52502 17.4625 6.52502V4.52502C15.0896 4.52502 13.033 4.80784 11.3203 5.40592L11.9797 7.29411ZM17.4625 6.52502C19.5323 6.52502 21.603 6.69545 23.675 7.03672L24 5.06331C21.822 4.70458 19.6427 4.52502 17.4625 4.52502V6.52502ZM23.688 7.03878C25.8101 7.35956 27.8943 7.76657 29.9407 8.25969L30.4092 6.31534C28.3057 5.80847 26.1649 5.39047 23.9869 5.06125L23.688 7.03878ZM29.9544 8.26288C32.0355 8.73361 34.0533 9.25358 36.0079 9.82265L36.567 7.90238C34.5717 7.32145 32.5145 6.79143 30.3956 6.31215L29.9544 8.26288ZM36.0223 9.82672C38.03 10.3788 39.9511 10.8811 41.7856 11.3334L42.2644 9.3916C40.4488 8.94392 38.5449 8.4462 36.5526 7.89831L36.0223 9.82672ZM42.9033 10.8406C43.9174 8.97743 45.1626 7.5207 46.6294 6.44352L45.4456 4.83151C43.7124 6.10433 42.2825 7.7976 41.1467 9.88444L42.9033 10.8406ZM46.6375 6.43752C48.0767 5.35813 49.6062 4.83751 51.25 4.83751V2.83752C49.1437 2.83752 47.1983 3.51691 45.4375 4.83752L46.6375 6.43752ZM51.25 4.83751C51.9348 4.83751 52.5066 4.95493 52.9847 5.16533L53.7902 3.3347C53.0184 2.9951 52.1651 2.83752 51.25 2.83752V4.83751ZM53.0161 5.17849C53.5304 5.38423 53.937 5.65125 54.2554 5.96962L55.6696 4.55541C55.138 4.02378 54.4945 3.6158 53.7589 3.32154L53.0161 5.17849ZM54.2554 5.96962C54.5723 6.28653 54.8044 6.65662 54.9555 7.09104L56.8445 6.434C56.5956 5.71841 56.2027 5.0885 55.6696 4.55541L54.2554 5.96962ZM54.9744 7.14115C55.1478 7.56481 55.2375 8.02304 55.2375 8.52502H57.2375C57.2375 7.77699 57.1022 7.06022 56.8255 6.38388L54.9744 7.14115ZM55.2375 8.52502C55.2375 9.41008 55.029 10.1285 54.6472 10.7204L56.3278 11.8046C56.9459 10.8465 57.2375 9.73996 57.2375 8.52502H55.2375ZM54.6427 10.7275C54.2584 11.3341 53.7118 11.8688 52.9745 12.3242L54.0255 14.0258C54.9882 13.4312 55.7665 12.6909 56.3323 11.7976L54.6427 10.7275ZM52.993 12.3131C52.2501 12.75 51.3533 13.0912 50.2876 13.3228L50.7124 15.2772C51.9466 15.0089 53.0498 14.6 54.007 14.037L52.993 12.3131ZM50.308 13.3186C49.2288 13.5298 48.0562 13.6375 46.7875 13.6375V15.6375C48.1687 15.6375 49.4712 15.5203 50.692 15.2814L50.308 13.3186ZM46.7875 13.6375C46.7869 13.6375 46.7863 13.6375 46.7857 13.6375C46.7851 13.6375 46.7846 13.6375 46.784 13.6375C46.7834 13.6375 46.7828 13.6375 46.7822 13.6375C46.7816 13.6375 46.781 13.6375 46.7804 13.6375C46.7799 13.6375 46.7793 13.6375 46.7787 13.6375C46.7781 13.6375 46.7775 13.6375 46.7769 13.6375C46.7763 13.6375 46.7758 13.6375 46.7752 13.6375C46.7746 13.6375 46.774 13.6375 46.7734 13.6375C46.7728 13.6375 46.7722 13.6375 46.7717 13.6375C46.7711 13.6375 46.7705 13.6375 46.7699 13.6375C46.7693 13.6375 46.7687 13.6375 46.7681 13.6375C46.7675 13.6375 46.767 13.6375 46.7664 13.6375C46.7658 13.6375 46.7652 13.6375 46.7646 13.6375C46.764 13.6375 46.7634 13.6375 46.7628 13.6375C46.7623 13.6375 46.7617 13.6375 46.7611 13.6375C46.7605 13.6375 46.7599 13.6375 46.7593 13.6375C46.7587 13.6375 46.7581 13.6375 46.7576 13.6375C46.757 13.6375 46.7564 13.6375 46.7558 13.6375C46.7552 13.6375 46.7546 13.6375 46.754 13.6375C46.7534 13.6375 46.7529 13.6375 46.7523 13.6375C46.7517 13.6375 46.7511 13.6375 46.7505 13.6375C46.7499 13.6375 46.7493 13.6375 46.7487 13.6375C46.7482 13.6375 46.7476 13.6375 46.747 13.6375C46.7464 13.6375 46.7458 13.6375 46.7452 13.6375C46.7446 13.6375 46.744 13.6375 46.7435 13.6375C46.7429 13.6375 46.7423 13.6375 46.7417 13.6375C46.7411 13.6375 46.7405 13.6375 46.7399 13.6375C46.7393 13.6375 46.7387 13.6375 46.7382 13.6375C46.7376 13.6375 46.737 13.6375 46.7364 13.6375C46.7358 13.6375 46.7352 13.6375 46.7346 13.6375C46.734 13.6375 46.7334 13.6375 46.7329 13.6375C46.7323 13.6375 46.7317 13.6375 46.7311 13.6375C46.7305 13.6375 46.7299 13.6375 46.7293 13.6375C46.7287 13.6375 46.7281 13.6375 46.7276 13.6375C46.727 13.6375 46.7264 13.6375 46.7258 13.6375C46.7252 13.6375 46.7246 13.6375 46.724 13.6375C46.7234 13.6375 46.7228 13.6375 46.7222 13.6375C46.7217 13.6375 46.7211 13.6375 46.7205 13.6375C46.7199 13.6375 46.7193 13.6375 46.7187 13.6375C46.7181 13.6375 46.7175 13.6375 46.7169 13.6375C46.7164 13.6375 46.7158 13.6375 46.7152 13.6375C46.7146 13.6375 46.714 13.6375 46.7134 13.6375C46.7128 13.6375 46.7122 13.6375 46.7116 13.6375C46.711 13.6375 46.7105 13.6375 46.7099 13.6375C46.7093 13.6375 46.7087 13.6375 46.7081 13.6375C46.7075 13.6375 46.7069 13.6375 46.7063 13.6375C46.7057 13.6375 46.7051 13.6375 46.7046 13.6375C46.704 13.6375 46.7034 13.6375 46.7028 13.6375C46.7022 13.6375 46.7016 13.6375 46.701 13.6375C46.7004 13.6375 46.6998 13.6375 46.6992 13.6375C46.6986 13.6375 46.6981 13.6375 46.6975 13.6375C46.6969 13.6375 46.6963 13.6375 46.6957 13.6375C46.6951 13.6375 46.6945 13.6375 46.6939 13.6375C46.6933 13.6375 46.6927 13.6375 46.6921 13.6375C46.6916 13.6375 46.691 13.6375 46.6904 13.6375C46.6898 13.6375 46.6892 13.6375 46.6886 13.6375C46.688 13.6375 46.6874 13.6375 46.6868 13.6375C46.6862 13.6375 46.6856 13.6375 46.685 13.6375C46.6845 13.6375 46.6839 13.6375 46.6833 13.6375C46.6827 13.6375 46.6821 13.6375 46.6815 13.6375C46.6809 13.6375 46.6803 13.6375 46.6797 13.6375C46.6791 13.6375 46.6785 13.6375 46.6779 13.6375C46.6774 13.6375 46.6768 13.6375 46.6762 13.6375C46.6756 13.6375 46.675 13.6375 46.6744 13.6375C46.6738 13.6375 46.6732 13.6375 46.6726 13.6375C46.672 13.6375 46.6714 13.6375 46.6708 13.6375C46.6703 13.6375 46.6697 13.6375 46.6691 13.6375C46.6685 13.6375 46.6679 13.6375 46.6673 13.6375C46.6667 13.6375 46.6661 13.6375 46.6655 13.6375C46.6649 13.6375 46.6643 13.6375 46.6637 13.6375C46.6631 13.6375 46.6626 13.6375 46.662 13.6375C46.6614 13.6375 46.6608 13.6375 46.6602 13.6375C46.6596 13.6375 46.659 13.6375 46.6584 13.6375C46.6578 13.6375 46.6572 13.6375 46.6566 13.6375C46.656 13.6375 46.6554 13.6375 46.6548 13.6375C46.6543 13.6375 46.6537 13.6375 46.6531 13.6375C46.6525 13.6375 46.6519 13.6375 46.6513 13.6375C46.6507 13.6375 46.6501 13.6375 46.6495 13.6375C46.6489 13.6375 46.6483 13.6375 46.6477 13.6375C46.6471 13.6375 46.6465 13.6375 46.6459 13.6375C46.6453 13.6375 46.6448 13.6375 46.6442 13.6375C46.6436 13.6375 46.643 13.6375 46.6424 13.6375C46.6418 13.6375 46.6412 13.6375 46.6406 13.6375C46.64 13.6375 46.6394 13.6375 46.6388 13.6375C46.6382 13.6375 46.6376 13.6375 46.637 13.6375C46.6364 13.6375 46.6358 13.6375 46.6353 13.6375C46.6347 13.6375 46.6341 13.6375 46.6335 13.6375C46.6329 13.6375 46.6323 13.6375 46.6317 13.6375C46.6311 13.6375 46.6305 13.6375 46.6299 13.6375C46.6293 13.6375 46.6287 13.6375 46.6281 13.6375C46.6275 13.6375 46.6269 13.6375 46.6263 13.6375C46.6257 13.6375 46.6251 13.6375 46.6246 13.6375C46.624 13.6375 46.6234 13.6375 46.6228 13.6375C46.6222 13.6375 46.6216 13.6375 46.621 13.6375C46.6204 13.6375 46.6198 13.6375 46.6192 13.6375C46.6186 13.6375 46.618 13.6375 46.6174 13.6375C46.6168 13.6375 46.6162 13.6375 46.6156 13.6375C46.615 13.6375 46.6144 13.6375 46.6138 13.6375C46.6132 13.6375 46.6127 13.6375 46.6121 13.6375C46.6115 13.6375 46.6109 13.6375 46.6103 13.6375C46.6097 13.6375 46.6091 13.6375 46.6085 13.6375C46.6079 13.6375 46.6073 13.6375 46.6067 13.6375C46.6061 13.6375 46.6055 13.6375 46.6049 13.6375C46.6043 13.6375 46.6037 13.6375 46.6031 13.6375C46.6025 13.6375 46.6019 13.6375 46.6013 13.6375C46.6007 13.6375 46.6001 13.6375 46.5995 13.6375C46.599 13.6375 46.5984 13.6375 46.5978 13.6375C46.5972 13.6375 46.5966 13.6375 46.596 13.6375C46.5954 13.6375 46.5948 13.6375 46.5942 13.6375C46.5936 13.6375 46.593 13.6375 46.5924 13.6375C46.5918 13.6375 46.5912 13.6375 46.5906 13.6375C46.59 13.6375 46.5894 13.6375 46.5888 13.6375C46.5882 13.6375 46.5876 13.6375 46.587 13.6375C46.5864 13.6375 46.5858 13.6375 46.5852 13.6375C46.5846 13.6375 46.584 13.6375 46.5834 13.6375C46.5828 13.6375 46.5822 13.6375 46.5817 13.6375C46.5811 13.6375 46.5805 13.6375 46.5799 13.6375C46.5793 13.6375 46.5787 13.6375 46.5781 13.6375C46.5775 13.6375 46.5769 13.6375 46.5763 13.6375C46.5757 13.6375 46.5751 13.6375 46.5745 13.6375C46.5739 13.6375 46.5733 13.6375 46.5727 13.6375C46.5721 13.6375 46.5715 13.6375 46.5709 13.6375C46.5703 13.6375 46.5697 13.6375 46.5691 13.6375C46.5685 13.6375 46.5679 13.6375 46.5673 13.6375C46.5667 13.6375 46.5661 13.6375 46.5655 13.6375C46.5649 13.6375 46.5643 13.6375 46.5637 13.6375C46.5631 13.6375 46.5625 13.6375 46.5619 13.6375C46.5613 13.6375 46.5607 13.6375 46.5601 13.6375C46.5595 13.6375 46.5589 13.6375 46.5583 13.6375C46.5577 13.6375 46.5571 13.6375 46.5565 13.6375C46.556 13.6375 46.5554 13.6375 46.5548 13.6375C46.5542 13.6375 46.5536 13.6375 46.553 13.6375C46.5524 13.6375 46.5518 13.6375 46.5512 13.6375C46.5506 13.6375 46.55 13.6375 46.5494 13.6375C46.5488 13.6375 46.5482 13.6375 46.5476 13.6375C46.547 13.6375 46.5464 13.6375 46.5458 13.6375C46.5452 13.6375 46.5446 13.6375 46.544 13.6375C46.5434 13.6375 46.5428 13.6375 46.5422 13.6375C46.5416 13.6375 46.541 13.6375 46.5404 13.6375C46.5398 13.6375 46.5392 13.6375 46.5386 13.6375C46.538 13.6375 46.5374 13.6375 46.5368 13.6375C46.5362 13.6375 46.5356 13.6375 46.535 13.6375C46.5344 13.6375 46.5338 13.6375 46.5332 13.6375C46.5326 13.6375 46.532 13.6375 46.5314 13.6375C46.5308 13.6375 46.5302 13.6375 46.5296 13.6375C46.529 13.6375 46.5284 13.6375 46.5278 13.6375C46.5272 13.6375 46.5266 13.6375 46.526 13.6375C46.5254 13.6375 46.5248 13.6375 46.5242 13.6375C46.5236 13.6375 46.523 13.6375 46.5224 13.6375C46.5218 13.6375 46.5212 13.6375 46.5206 13.6375C46.52 13.6375 46.5194 13.6375 46.5188 13.6375C46.5182 13.6375 46.5176 13.6375 46.517 13.6375C46.5164 13.6375 46.5158 13.6375 46.5152 13.6375C46.5146 13.6375 46.514 13.6375 46.5134 13.6375C46.5128 13.6375 46.5122 13.6375 46.5116 13.6375C46.511 13.6375 46.5104 13.6375 46.5098 13.6375C46.5092 13.6375 46.5086 13.6375 46.508 13.6375C46.5074 13.6375 46.5068 13.6375 46.5062 13.6375C46.5056 13.6375 46.505 13.6375 46.5044 13.6375C46.5038 13.6375 46.5032 13.6375 46.5026 13.6375C46.502 13.6375 46.5014 13.6375 46.5008 13.6375C46.5002 13.6375 46.4996 13.6375 46.499 13.6375C46.4984 13.6375 46.4978 13.6375 46.4972 13.6375C46.4966 13.6375 46.496 13.6375 46.4954 13.6375C46.4948 13.6375 46.4942 13.6375 46.4935 13.6375C46.4929 13.6375 46.4923 13.6375 46.4917 13.6375C46.4911 13.6375 46.4905 13.6375 46.4899 13.6375C46.4893 13.6375 46.4887 13.6375 46.4881 13.6375C46.4875 13.6375 46.4869 13.6375 46.4863 13.6375C46.4857 13.6375 46.4851 13.6375 46.4845 13.6375C46.4839 13.6375 46.4833 13.6375 46.4827 13.6375C46.4821 13.6375 46.4815 13.6375 46.4809 13.6375C46.4803 13.6375 46.4797 13.6375 46.4791 13.6375C46.4785 13.6375 46.4779 13.6375 46.4773 13.6375C46.4767 13.6375 46.4761 13.6375 46.4755 13.6375C46.4749 13.6375 46.4743 13.6375 46.4737 13.6375C46.4731 13.6375 46.4725 13.6375 46.4719 13.6375C46.4713 13.6375 46.4707 13.6375 46.4701 13.6375C46.4695 13.6375 46.4689 13.6375 46.4683 13.6375C46.4676 13.6375 46.467 13.6375 46.4664 13.6375C46.4658 13.6375 46.4652 13.6375 46.4646 13.6375C46.464 13.6375 46.4634 13.6375 46.4628 13.6375C46.4622 13.6375 46.4616 13.6375 46.461 13.6375C46.4604 13.6375 46.4598 13.6375 46.4592 13.6375C46.4586 13.6375 46.458 13.6375 46.4574 13.6375C46.4568 13.6375 46.4562 13.6375 46.4556 13.6375C46.455 13.6375 46.4544 13.6375 46.4538 13.6375C46.4532 13.6375 46.4526 13.6375 46.452 13.6375C46.4514 13.6375 46.4508 13.6375 46.4501 13.6375C46.4495 13.6375 46.4489 13.6375 46.4483 13.6375C46.4477 13.6375 46.4471 13.6375 46.4465 13.6375C46.4459 13.6375 46.4453 13.6375 46.4447 13.6375C46.4441 13.6375 46.4435 13.6375 46.4429 13.6375C46.4423 13.6375 46.4417 13.6375 46.4411 13.6375C46.4405 13.6375 46.4399 13.6375 46.4393 13.6375C46.4387 13.6375 46.4381 13.6375 46.4375 13.6375C46.4369 13.6375 46.4362 13.6375 46.4356 13.6375C46.435 13.6375 46.4344 13.6375 46.4338 13.6375C46.4332 13.6375 46.4326 13.6375 46.432 13.6375C46.4314 13.6375 46.4308 13.6375 46.4302 13.6375C46.4296 13.6375 46.429 13.6375 46.4284 13.6375C46.4278 13.6375 46.4272 13.6375 46.4266 13.6375C46.426 13.6375 46.4254 13.6375 46.4248 13.6375C46.4241 13.6375 46.4235 13.6375 46.4229 13.6375C46.4223 13.6375 46.4217 13.6375 46.4211 13.6375C46.4205 13.6375 46.4199 13.6375 46.4193 13.6375C46.4187 13.6375 46.4181 13.6375 46.4175 13.6375C46.4169 13.6375 46.4163 13.6375 46.4157 13.6375C46.4151 13.6375 46.4145 13.6375 46.4139 13.6375C46.4132 13.6375 46.4126 13.6375 46.412 13.6375C46.4114 13.6375 46.4108 13.6375 46.4102 13.6375C46.4096 13.6375 46.409 13.6375 46.4084 13.6375C46.4078 13.6375 46.4072 13.6375 46.4066 13.6375C46.406 13.6375 46.4054 13.6375 46.4048 13.6375C46.4042 13.6375 46.4035 13.6375 46.4029 13.6375C46.4023 13.6375 46.4017 13.6375 46.4011 13.6375C46.4005 13.6375 46.3999 13.6375 46.3993 13.6375C46.3987 13.6375 46.3981 13.6375 46.3975 13.6375C46.3969 13.6375 46.3963 13.6375 46.3957 13.6375C46.3951 13.6375 46.3944 13.6375 46.3938 13.6375C46.3932 13.6375 46.3926 13.6375 46.392 13.6375C46.3914 13.6375 46.3908 13.6375 46.3902 13.6375C46.3896 13.6375 46.389 13.6375 46.3884 13.6375C46.3878 13.6375 46.3872 13.6375 46.3866 13.6375C46.3859 13.6375 46.3853 13.6375 46.3847 13.6375C46.3841 13.6375 46.3835 13.6375 46.3829 13.6375C46.3823 13.6375 46.3817 13.6375 46.3811 13.6375C46.3805 13.6375 46.3799 13.6375 46.3793 13.6375C46.3787 13.6375 46.3781 13.6375 46.3774 13.6375C46.3768 13.6375 46.3762 13.6375 46.3756 13.6375C46.375 13.6375 46.3744 13.6375 46.3738 13.6375C46.3732 13.6375 46.3726 13.6375 46.372 13.6375C46.3714 13.6375 46.3708 13.6375 46.3701 13.6375C46.3695 13.6375 46.3689 13.6375 46.3683 13.6375C46.3677 13.6375 46.3671 13.6375 46.3665 13.6375C46.3659 13.6375 46.3653 13.6375 46.3647 13.6375C46.3641 13.6375 46.3635 13.6375 46.3628 13.6375C46.3622 13.6375 46.3616 13.6375 46.361 13.6375C46.3604 13.6375 46.3598 13.6375 46.3592 13.6375C46.3586 13.6375 46.358 13.6375 46.3574 13.6375C46.3568 13.6375 46.3562 13.6375 46.3555 13.6375C46.3549 13.6375 46.3543 13.6375 46.3537 13.6375C46.3531 13.6375 46.3525 13.6375 46.3519 13.6375C46.3513 13.6375 46.3507 13.6375 46.3501 13.6375C46.3494 13.6375 46.3488 13.6375 46.3482 13.6375C46.3476 13.6375 46.347 13.6375 46.3464 13.6375C46.3458 13.6375 46.3452 13.6375 46.3446 13.6375C46.344 13.6375 46.3434 13.6375 46.3427 13.6375C46.3421 13.6375 46.3415 13.6375 46.3409 13.6375C46.3403 13.6375 46.3397 13.6375 46.3391 13.6375C46.3385 13.6375 46.3379 13.6375 46.3373 13.6375C46.3367 13.6375 46.336 13.6375 46.3354 13.6375C46.3348 13.6375 46.3342 13.6375 46.3336 13.6375C46.333 13.6375 46.3324 13.6375 46.3318 13.6375C46.3312 13.6375 46.3306 13.6375 46.3299 13.6375C46.3293 13.6375 46.3287 13.6375 46.3281 13.6375C46.3275 13.6375 46.3269 13.6375 46.3263 13.6375C46.3257 13.6375 46.3251 13.6375 46.3244 13.6375C46.3238 13.6375 46.3232 13.6375 46.3226 13.6375C46.322 13.6375 46.3214 13.6375 46.3208 13.6375C46.3202 13.6375 46.3196 13.6375 46.319 13.6375C46.3183 13.6375 46.3177 13.6375 46.3171 13.6375C46.3165 13.6375 46.3159 13.6375 46.3153 13.6375C46.3147 13.6375 46.3141 13.6375 46.3134 13.6375C46.3128 13.6375 46.3122 13.6375 46.3116 13.6375C46.311 13.6375 46.3104 13.6375 46.3098 13.6375C46.3092 13.6375 46.3086 13.6375 46.3079 13.6375C46.3073 13.6375 46.3067 13.6375 46.3061 13.6375C46.3055 13.6375 46.3049 13.6375 46.3043 13.6375C46.3037 13.6375 46.3031 13.6375 46.3024 13.6375C46.3018 13.6375 46.3012 13.6375 46.3006 13.6375C46.3 13.6375 46.2994 13.6375 46.2988 13.6375C46.2982 13.6375 46.2976 13.6375 46.2969 13.6375C46.2963 13.6375 46.2957 13.6375 46.2951 13.6375C46.2945 13.6375 46.2939 13.6375 46.2933 13.6375C46.2927 13.6375 46.292 13.6375 46.2914 13.6375C46.2908 13.6375 46.2902 13.6375 46.2896 13.6375C46.289 13.6375 46.2884 13.6375 46.2878 13.6375C46.2871 13.6375 46.2865 13.6375 46.2859 13.6375C46.2853 13.6375 46.2847 13.6375 46.2841 13.6375C46.2835 13.6375 46.2829 13.6375 46.2822 13.6375C46.2816 13.6375 46.281 13.6375 46.2804 13.6375C46.2798 13.6375 46.2792 13.6375 46.2786 13.6375C46.278 13.6375 46.2773 13.6375 46.2767 13.6375C46.2761 13.6375 46.2755 13.6375 46.2749 13.6375C46.2743 13.6375 46.2737 13.6375 46.273 13.6375C46.2724 13.6375 46.2718 13.6375 46.2712 13.6375C46.2706 13.6375 46.27 13.6375 46.2694 13.6375C46.2688 13.6375 46.2681 13.6375 46.2675 13.6375C46.2669 13.6375 46.2663 13.6375 46.2657 13.6375C46.2651 13.6375 46.2645 13.6375 46.2638 13.6375C46.2632 13.6375 46.2626 13.6375 46.262 13.6375C46.2614 13.6375 46.2608 13.6375 46.2602 13.6375C46.2595 13.6375 46.2589 13.6375 46.2583 13.6375C46.2577 13.6375 46.2571 13.6375 46.2565 13.6375C46.2559 13.6375 46.2553 13.6375 46.2546 13.6375C46.254 13.6375 46.2534 13.6375 46.2528 13.6375C46.2522 13.6375 46.2516 13.6375 46.2509 13.6375C46.2503 13.6375 46.2497 13.6375 46.2491 13.6375C46.2485 13.6375 46.2479 13.6375 46.2473 13.6375C46.2467 13.6375 46.246 13.6375 46.2454 13.6375C46.2448 13.6375 46.2442 13.6375 46.2436 13.6375C46.243 13.6375 46.2423 13.6375 46.2417 13.6375C46.2411 13.6375 46.2405 13.6375 46.2399 13.6375C46.2393 13.6375 46.2387 13.6375 46.238 13.6375C46.2374 13.6375 46.2368 13.6375 46.2362 13.6375C46.2356 13.6375 46.235 13.6375 46.2344 13.6375C46.2337 13.6375 46.2331 13.6375 46.2325 13.6375C46.2319 13.6375 46.2313 13.6375 46.2307 13.6375C46.23 13.6375 46.2294 13.6375 46.2288 13.6375C46.2282 13.6375 46.2276 13.6375 46.227 13.6375C46.2264 13.6375 46.2257 13.6375 46.2251 13.6375C46.2245 13.6375 46.2239 13.6375 46.2233 13.6375C46.2227 13.6375 46.222 13.6375 46.2214 13.6375C46.2208 13.6375 46.2202 13.6375 46.2196 13.6375C46.219 13.6375 46.2183 13.6375 46.2177 13.6375C46.2171 13.6375 46.2165 13.6375 46.2159 13.6375C46.2153 13.6375 46.2146 13.6375 46.214 13.6375C46.2134 13.6375 46.2128 13.6375 46.2122 13.6375C46.2116 13.6375 46.211 13.6375 46.2103 13.6375C46.2097 13.6375 46.2091 13.6375 46.2085 13.6375C46.2079 13.6375 46.2073 13.6375 46.2066 13.6375C46.206 13.6375 46.2054 13.6375 46.2048 13.6375C46.2042 13.6375 46.2036 13.6375 46.2029 13.6375C46.2023 13.6375 46.2017 13.6375 46.2011 13.6375C46.2005 13.6375 46.1999 13.6375 46.1992 13.6375C46.1986 13.6375 46.198 13.6375 46.1974 13.6375C46.1968 13.6375 46.1961 13.6375 46.1955 13.6375C46.1949 13.6375 46.1943 13.6375 46.1937 13.6375C46.1931 13.6375 46.1924 13.6375 46.1918 13.6375C46.1912 13.6375 46.1906 13.6375 46.19 13.6375C46.1894 13.6375 46.1887 13.6375 46.1881 13.6375C46.1875 13.6375 46.1869 13.6375 46.1863 13.6375C46.1856 13.6375 46.185 13.6375 46.1844 13.6375C46.1838 13.6375 46.1832 13.6375 46.1826 13.6375C46.1819 13.6375 46.1813 13.6375 46.1807 13.6375C46.1801 13.6375 46.1795 13.6375 46.1789 13.6375C46.1782 13.6375 46.1776 13.6375 46.177 13.6375C46.1764 13.6375 46.1758 13.6375 46.1751 13.6375C46.1745 13.6375 46.1739 13.6375 46.1733 13.6375C46.1727 13.6375 46.1721 13.6375 46.1714 13.6375C46.1708 13.6375 46.1702 13.6375 46.1696 13.6375C46.169 13.6375 46.1683 13.6375 46.1677 13.6375C46.1671 13.6375 46.1665 13.6375 46.1659 13.6375C46.1652 13.6375 46.1646 13.6375 46.164 13.6375C46.1634 13.6375 46.1628 13.6375 46.1622 13.6375C46.1615 13.6375 46.1609 13.6375 46.1603 13.6375C46.1597 13.6375 46.1591 13.6375 46.1584 13.6375C46.1578 13.6375 46.1572 13.6375 46.1566 13.6375C46.156 13.6375 46.1553 13.6375 46.1547 13.6375C46.1541 13.6375 46.1535 13.6375 46.1529 13.6375C46.1522 13.6375 46.1516 13.6375 46.151 13.6375C46.1504 13.6375 46.1498 13.6375 46.1492 13.6375C46.1485 13.6375 46.1479 13.6375 46.1473 13.6375C46.1467 13.6375 46.1461 13.6375 46.1454 13.6375C46.1448 13.6375 46.1442 13.6375 46.1436 13.6375C46.143 13.6375 46.1423 13.6375 46.1417 13.6375C46.1411 13.6375 46.1405 13.6375 46.1399 13.6375C46.1392 13.6375 46.1386 13.6375 46.138 13.6375C46.1374 13.6375 46.1368 13.6375 46.1361 13.6375C46.1355 13.6375 46.1349 13.6375 46.1343 13.6375C46.1337 13.6375 46.133 13.6375 46.1324 13.6375C46.1318 13.6375 46.1312 13.6375 46.1305 13.6375C46.1299 13.6375 46.1293 13.6375 46.1287 13.6375C46.1281 13.6375 46.1274 13.6375 46.1268 13.6375C46.1262 13.6375 46.1256 13.6375 46.125 13.6375C46.1243 13.6375 46.1237 13.6375 46.1231 13.6375C46.1225 13.6375 46.1219 13.6375 46.1212 13.6375C46.1206 13.6375 46.12 13.6375 46.1194 13.6375C46.1188 13.6375 46.1181 13.6375 46.1175 13.6375C46.1169 13.6375 46.1163 13.6375 46.1156 13.6375C46.115 13.6375 46.1144 13.6375 46.1138 13.6375C46.1132 13.6375 46.1125 13.6375 46.1119 13.6375C46.1113 13.6375 46.1107 13.6375 46.1101 13.6375C46.1094 13.6375 46.1088 13.6375 46.1082 13.6375C46.1076 13.6375 46.1069 13.6375 46.1063 13.6375C46.1057 13.6375 46.1051 13.6375 46.1045 13.6375C46.1038 13.6375 46.1032 13.6375 46.1026 13.6375C46.102 13.6375 46.1013 13.6375 46.1007 13.6375C46.1001 13.6375 46.0995 13.6375 46.0989 13.6375C46.0982 13.6375 46.0976 13.6375 46.097 13.6375C46.0964 13.6375 46.0957 13.6375 46.0951 13.6375C46.0945 13.6375 46.0939 13.6375 46.0933 13.6375C46.0926 13.6375 46.092 13.6375 46.0914 13.6375C46.0908 13.6375 46.0901 13.6375 46.0895 13.6375C46.0889 13.6375 46.0883 13.6375 46.0877 13.6375C46.087 13.6375 46.0864 13.6375 46.0858 13.6375C46.0852 13.6375 46.0845 13.6375 46.0839 13.6375C46.0833 13.6375 46.0827 13.6375 46.082 13.6375C46.0814 13.6375 46.0808 13.6375 46.0802 13.6375C46.0796 13.6375 46.0789 13.6375 46.0783 13.6375C46.0777 13.6375 46.0771 13.6375 46.0764 13.6375C46.0758 13.6375 46.0752 13.6375 46.0746 13.6375C46.0739 13.6375 46.0733 13.6375 46.0727 13.6375C46.0721 13.6375 46.0715 13.6375 46.0708 13.6375C46.0702 13.6375 46.0696 13.6375 46.069 13.6375C46.0683 13.6375 46.0677 13.6375 46.0671 13.6375C46.0665 13.6375 46.0658 13.6375 46.0652 13.6375C46.0646 13.6375 46.064 13.6375 46.0633 13.6375C46.0627 13.6375 46.0621 13.6375 46.0615 13.6375C46.0608 13.6375 46.0602 13.6375 46.0596 13.6375C46.059 13.6375 46.0583 13.6375 46.0577 13.6375C46.0571 13.6375 46.0565 13.6375 46.0559 13.6375C46.0552 13.6375 46.0546 13.6375 46.054 13.6375C46.0534 13.6375 46.0527 13.6375 46.0521 13.6375C46.0515 13.6375 46.0509 13.6375 46.0502 13.6375C46.0496 13.6375 46.049 13.6375 46.0484 13.6375C46.0477 13.6375 46.0471 13.6375 46.0465 13.6375C46.0459 13.6375 46.0452 13.6375 46.0446 13.6375C46.044 13.6375 46.0434 13.6375 46.0427 13.6375C46.0421 13.6375 46.0415 13.6375 46.0409 13.6375C46.0402 13.6375 46.0396 13.6375 46.039 13.6375C46.0384 13.6375 46.0377 13.6375 46.0371 13.6375C46.0365 13.6375 46.0359 13.6375 46.0352 13.6375C46.0346 13.6375 46.034 13.6375 46.0334 13.6375C46.0327 13.6375 46.0321 13.6375 46.0315 13.6375C46.0309 13.6375 46.0302 13.6375 46.0296 13.6375C46.029 13.6375 46.0283 13.6375 46.0277 13.6375C46.0271 13.6375 46.0265 13.6375 46.0258 13.6375C46.0252 13.6375 46.0246 13.6375 46.024 13.6375C46.0233 13.6375 46.0227 13.6375 46.0221 13.6375C46.0215 13.6375 46.0208 13.6375 46.0202 13.6375C46.0196 13.6375 46.019 13.6375 46.0183 13.6375C46.0177 13.6375 46.0171 13.6375 46.0165 13.6375C46.0158 13.6375 46.0152 13.6375 46.0146 13.6375C46.0139 13.6375 46.0133 13.6375 46.0127 13.6375C46.0121 13.6375 46.0114 13.6375 46.0108 13.6375C46.0102 13.6375 46.0096 13.6375 46.0089 13.6375C46.0083 13.6375 46.0077 13.6375 46.0071 13.6375C46.0064 13.6375 46.0058 13.6375 46.0052 13.6375C46.0045 13.6375 46.0039 13.6375 46.0033 13.6375C46.0027 13.6375 46.002 13.6375 46.0014 13.6375C46.0008 13.6375 46.0002 13.6375 45.9995 13.6375C45.9989 13.6375 45.9983 13.6375 45.9976 13.6375C45.997 13.6375 45.9964 13.6375 45.9958 13.6375C45.9951 13.6375 45.9945 13.6375 45.9939 13.6375C45.9933 13.6375 45.9926 13.6375 45.992 13.6375C45.9914 13.6375 45.9907 13.6375 45.9901 13.6375C45.9895 13.6375 45.9889 13.6375 45.9882 13.6375C45.9876 13.6375 45.987 13.6375 45.9864 13.6375C45.9857 13.6375 45.9851 13.6375 45.9845 13.6375C45.9838 13.6375 45.9832 13.6375 45.9826 13.6375C45.982 13.6375 45.9813 13.6375 45.9807 13.6375C45.9801 13.6375 45.9794 13.6375 45.9788 13.6375C45.9782 13.6375 45.9776 13.6375 45.9769 13.6375C45.9763 13.6375 45.9757 13.6375 45.975 13.6375C45.9744 13.6375 45.9738 13.6375 45.9732 13.6375C45.9725 13.6375 45.9719 13.6375 45.9713 13.6375C45.9706 13.6375 45.97 13.6375 45.9694 13.6375C45.9688 13.6375 45.9681 13.6375 45.9675 13.6375C45.9669 13.6375 45.9662 13.6375 45.9656 13.6375C45.965 13.6375 45.9644 13.6375 45.9637 13.6375C45.9631 13.6375 45.9625 13.6375 45.9618 13.6375C45.9612 13.6375 45.9606 13.6375 45.9599 13.6375C45.9593 13.6375 45.9587 13.6375 45.9581 13.6375C45.9574 13.6375 45.9568 13.6375 45.9562 13.6375C45.9555 13.6375 45.9549 13.6375 45.9543 13.6375C45.9537 13.6375 45.953 13.6375 45.9524 13.6375C45.9518 13.6375 45.9511 13.6375 45.9505 13.6375C45.9499 13.6375 45.9492 13.6375 45.9486 13.6375C45.948 13.6375 45.9474 13.6375 45.9467 13.6375C45.9461 13.6375 45.9455 13.6375 45.9448 13.6375C45.9442 13.6375 45.9436 13.6375 45.943 13.6375C45.9423 13.6375 45.9417 13.6375 45.9411 13.6375C45.9404 13.6375 45.9398 13.6375 45.9392 13.6375C45.9385 13.6375 45.9379 13.6375 45.9373 13.6375C45.9366 13.6375 45.936 13.6375 45.9354 13.6375C45.9348 13.6375 45.9341 13.6375 45.9335 13.6375C45.9329 13.6375 45.9322 13.6375 45.9316 13.6375C45.931 13.6375 45.9303 13.6375 45.9297 13.6375C45.9291 13.6375 45.9285 13.6375 45.9278 13.6375C45.9272 13.6375 45.9266 13.6375 45.9259 13.6375C45.9253 13.6375 45.9247 13.6375 45.924 13.6375C45.9234 13.6375 45.9228 13.6375 45.9221 13.6375C45.9215 13.6375 45.9209 13.6375 45.9202 13.6375C45.9196 13.6375 45.919 13.6375 45.9184 13.6375C45.9177 13.6375 45.9171 13.6375 45.9165 13.6375C45.9158 13.6375 45.9152 13.6375 45.9146 13.6375C45.9139 13.6375 45.9133 13.6375 45.9127 13.6375C45.912 13.6375 45.9114 13.6375 45.9108 13.6375C45.9101 13.6375 45.9095 13.6375 45.9089 13.6375C45.9082 13.6375 45.9076 13.6375 45.907 13.6375C45.9064 13.6375 45.9057 13.6375 45.9051 13.6375C45.9045 13.6375 45.9038 13.6375 45.9032 13.6375C45.9026 13.6375 45.9019 13.6375 45.9013 13.6375C45.9007 13.6375 45.9 13.6375 45.8994 13.6375C45.8988 13.6375 45.8981 13.6375 45.8975 13.6375C45.8969 13.6375 45.8962 13.6375 45.8956 13.6375C45.895 13.6375 45.8943 13.6375 45.8937 13.6375C45.8931 13.6375 45.8924 13.6375 45.8918 13.6375C45.8912 13.6375 45.8905 13.6375 45.8899 13.6375C45.8893 13.6375 45.8886 13.6375 45.888 13.6375C45.8874 13.6375 45.8867 13.6375 45.8861 13.6375C45.8855 13.6375 45.8848 13.6375 45.8842 13.6375C45.8836 13.6375 45.8829 13.6375 45.8823 13.6375C45.8817 13.6375 45.8811 13.6375 45.8804 13.6375C45.8798 13.6375 45.8792 13.6375 45.8785 13.6375C45.8779 13.6375 45.8772 13.6375 45.8766 13.6375C45.876 13.6375 45.8753 13.6375 45.8747 13.6375C45.8741 13.6375 45.8734 13.6375 45.8728 13.6375C45.8722 13.6375 45.8715 13.6375 45.8709 13.6375C45.8703 13.6375 45.8696 13.6375 45.869 13.6375C45.8684 13.6375 45.8677 13.6375 45.8671 13.6375C45.8665 13.6375 45.8658 13.6375 45.8652 13.6375C45.8646 13.6375 45.8639 13.6375 45.8633 13.6375C45.8627 13.6375 45.862 13.6375 45.8614 13.6375C45.8608 13.6375 45.8601 13.6375 45.8595 13.6375C45.8589 13.6375 45.8582 13.6375 45.8576 13.6375C45.857 13.6375 45.8563 13.6375 45.8557 13.6375C45.8551 13.6375 45.8544 13.6375 45.8538 13.6375C45.8532 13.6375 45.8525 13.6375 45.8519 13.6375C45.8513 13.6375 45.8506 13.6375 45.85 13.6375V15.6375C45.8506 15.6375 45.8513 15.6375 45.8519 15.6375C45.8525 15.6375 45.8532 15.6375 45.8538 15.6375C45.8544 15.6375 45.8551 15.6375 45.8557 15.6375C45.8563 15.6375 45.857 15.6375 45.8576 15.6375C45.8582 15.6375 45.8589 15.6375 45.8595 15.6375C45.8601 15.6375 45.8608 15.6375 45.8614 15.6375C45.862 15.6375 45.8627 15.6375 45.8633 15.6375C45.8639 15.6375 45.8646 15.6375 45.8652 15.6375C45.8658 15.6375 45.8665 15.6375 45.8671 15.6375C45.8677 15.6375 45.8684 15.6375 45.869 15.6375C45.8696 15.6375 45.8703 15.6375 45.8709 15.6375C45.8715 15.6375 45.8722 15.6375 45.8728 15.6375C45.8734 15.6375 45.8741 15.6375 45.8747 15.6375C45.8753 15.6375 45.876 15.6375 45.8766 15.6375C45.8772 15.6375 45.8779 15.6375 45.8785 15.6375C45.8792 15.6375 45.8798 15.6375 45.8804 15.6375C45.8811 15.6375 45.8817 15.6375 45.8823 15.6375C45.8829 15.6375 45.8836 15.6375 45.8842 15.6375C45.8848 15.6375 45.8855 15.6375 45.8861 15.6375C45.8867 15.6375 45.8874 15.6375 45.888 15.6375C45.8886 15.6375 45.8893 15.6375 45.8899 15.6375C45.8905 15.6375 45.8912 15.6375 45.8918 15.6375C45.8924 15.6375 45.8931 15.6375 45.8937 15.6375C45.8943 15.6375 45.895 15.6375 45.8956 15.6375C45.8962 15.6375 45.8969 15.6375 45.8975 15.6375C45.8981 15.6375 45.8988 15.6375 45.8994 15.6375C45.9 15.6375 45.9007 15.6375 45.9013 15.6375C45.9019 15.6375 45.9026 15.6375 45.9032 15.6375C45.9038 15.6375 45.9045 15.6375 45.9051 15.6375C45.9057 15.6375 45.9064 15.6375 45.907 15.6375C45.9076 15.6375 45.9082 15.6375 45.9089 15.6375C45.9095 15.6375 45.9101 15.6375 45.9108 15.6375C45.9114 15.6375 45.912 15.6375 45.9127 15.6375C45.9133 15.6375 45.9139 15.6375 45.9146 15.6375C45.9152 15.6375 45.9158 15.6375 45.9165 15.6375C45.9171 15.6375 45.9177 15.6375 45.9184 15.6375C45.919 15.6375 45.9196 15.6375 45.9202 15.6375C45.9209 15.6375 45.9215 15.6375 45.9221 15.6375C45.9228 15.6375 45.9234 15.6375 45.924 15.6375C45.9247 15.6375 45.9253 15.6375 45.9259 15.6375C45.9266 15.6375 45.9272 15.6375 45.9278 15.6375C45.9285 15.6375 45.9291 15.6375 45.9297 15.6375C45.9303 15.6375 45.931 15.6375 45.9316 15.6375C45.9322 15.6375 45.9329 15.6375 45.9335 15.6375C45.9341 15.6375 45.9348 15.6375 45.9354 15.6375C45.936 15.6375 45.9366 15.6375 45.9373 15.6375C45.9379 15.6375 45.9385 15.6375 45.9392 15.6375C45.9398 15.6375 45.9404 15.6375 45.9411 15.6375C45.9417 15.6375 45.9423 15.6375 45.943 15.6375C45.9436 15.6375 45.9442 15.6375 45.9448 15.6375C45.9455 15.6375 45.9461 15.6375 45.9467 15.6375C45.9474 15.6375 45.948 15.6375 45.9486 15.6375C45.9492 15.6375 45.9499 15.6375 45.9505 15.6375C45.9511 15.6375 45.9518 15.6375 45.9524 15.6375C45.953 15.6375 45.9537 15.6375 45.9543 15.6375C45.9549 15.6375 45.9555 15.6375 45.9562 15.6375C45.9568 15.6375 45.9574 15.6375 45.9581 15.6375C45.9587 15.6375 45.9593 15.6375 45.9599 15.6375C45.9606 15.6375 45.9612 15.6375 45.9618 15.6375C45.9625 15.6375 45.9631 15.6375 45.9637 15.6375C45.9644 15.6375 45.965 15.6375 45.9656 15.6375C45.9662 15.6375 45.9669 15.6375 45.9675 15.6375C45.9681 15.6375 45.9688 15.6375 45.9694 15.6375C45.97 15.6375 45.9706 15.6375 45.9713 15.6375C45.9719 15.6375 45.9725 15.6375 45.9732 15.6375C45.9738 15.6375 45.9744 15.6375 45.975 15.6375C45.9757 15.6375 45.9763 15.6375 45.9769 15.6375C45.9776 15.6375 45.9782 15.6375 45.9788 15.6375C45.9794 15.6375 45.9801 15.6375 45.9807 15.6375C45.9813 15.6375 45.982 15.6375 45.9826 15.6375C45.9832 15.6375 45.9838 15.6375 45.9845 15.6375C45.9851 15.6375 45.9857 15.6375 45.9864 15.6375C45.987 15.6375 45.9876 15.6375 45.9882 15.6375C45.9889 15.6375 45.9895 15.6375 45.9901 15.6375C45.9907 15.6375 45.9914 15.6375 45.992 15.6375C45.9926 15.6375 45.9933 15.6375 45.9939 15.6375C45.9945 15.6375 45.9951 15.6375 45.9958 15.6375C45.9964 15.6375 45.997 15.6375 45.9976 15.6375C45.9983 15.6375 45.9989 15.6375 45.9995 15.6375C46.0002 15.6375 46.0008 15.6375 46.0014 15.6375C46.002 15.6375 46.0027 15.6375 46.0033 15.6375C46.0039 15.6375 46.0045 15.6375 46.0052 15.6375C46.0058 15.6375 46.0064 15.6375 46.0071 15.6375C46.0077 15.6375 46.0083 15.6375 46.0089 15.6375C46.0096 15.6375 46.0102 15.6375 46.0108 15.6375C46.0114 15.6375 46.0121 15.6375 46.0127 15.6375C46.0133 15.6375 46.0139 15.6375 46.0146 15.6375C46.0152 15.6375 46.0158 15.6375 46.0165 15.6375C46.0171 15.6375 46.0177 15.6375 46.0183 15.6375C46.019 15.6375 46.0196 15.6375 46.0202 15.6375C46.0208 15.6375 46.0215 15.6375 46.0221 15.6375C46.0227 15.6375 46.0233 15.6375 46.024 15.6375C46.0246 15.6375 46.0252 15.6375 46.0258 15.6375C46.0265 15.6375 46.0271 15.6375 46.0277 15.6375C46.0283 15.6375 46.029 15.6375 46.0296 15.6375C46.0302 15.6375 46.0309 15.6375 46.0315 15.6375C46.0321 15.6375 46.0327 15.6375 46.0334 15.6375C46.034 15.6375 46.0346 15.6375 46.0352 15.6375C46.0359 15.6375 46.0365 15.6375 46.0371 15.6375C46.0377 15.6375 46.0384 15.6375 46.039 15.6375C46.0396 15.6375 46.0402 15.6375 46.0409 15.6375C46.0415 15.6375 46.0421 15.6375 46.0427 15.6375C46.0434 15.6375 46.044 15.6375 46.0446 15.6375C46.0452 15.6375 46.0459 15.6375 46.0465 15.6375C46.0471 15.6375 46.0477 15.6375 46.0484 15.6375C46.049 15.6375 46.0496 15.6375 46.0502 15.6375C46.0509 15.6375 46.0515 15.6375 46.0521 15.6375C46.0527 15.6375 46.0534 15.6375 46.054 15.6375C46.0546 15.6375 46.0552 15.6375 46.0559 15.6375C46.0565 15.6375 46.0571 15.6375 46.0577 15.6375C46.0583 15.6375 46.059 15.6375 46.0596 15.6375C46.0602 15.6375 46.0608 15.6375 46.0615 15.6375C46.0621 15.6375 46.0627 15.6375 46.0633 15.6375C46.064 15.6375 46.0646 15.6375 46.0652 15.6375C46.0658 15.6375 46.0665 15.6375 46.0671 15.6375C46.0677 15.6375 46.0683 15.6375 46.069 15.6375C46.0696 15.6375 46.0702 15.6375 46.0708 15.6375C46.0715 15.6375 46.0721 15.6375 46.0727 15.6375C46.0733 15.6375 46.0739 15.6375 46.0746 15.6375C46.0752 15.6375 46.0758 15.6375 46.0764 15.6375C46.0771 15.6375 46.0777 15.6375 46.0783 15.6375C46.0789 15.6375 46.0796 15.6375 46.0802 15.6375C46.0808 15.6375 46.0814 15.6375 46.082 15.6375C46.0827 15.6375 46.0833 15.6375 46.0839 15.6375C46.0845 15.6375 46.0852 15.6375 46.0858 15.6375C46.0864 15.6375 46.087 15.6375 46.0877 15.6375C46.0883 15.6375 46.0889 15.6375 46.0895 15.6375C46.0901 15.6375 46.0908 15.6375 46.0914 15.6375C46.092 15.6375 46.0926 15.6375 46.0933 15.6375C46.0939 15.6375 46.0945 15.6375 46.0951 15.6375C46.0957 15.6375 46.0964 15.6375 46.097 15.6375C46.0976 15.6375 46.0982 15.6375 46.0989 15.6375C46.0995 15.6375 46.1001 15.6375 46.1007 15.6375C46.1013 15.6375 46.102 15.6375 46.1026 15.6375C46.1032 15.6375 46.1038 15.6375 46.1045 15.6375C46.1051 15.6375 46.1057 15.6375 46.1063 15.6375C46.1069 15.6375 46.1076 15.6375 46.1082 15.6375C46.1088 15.6375 46.1094 15.6375 46.1101 15.6375C46.1107 15.6375 46.1113 15.6375 46.1119 15.6375C46.1125 15.6375 46.1132 15.6375 46.1138 15.6375C46.1144 15.6375 46.115 15.6375 46.1156 15.6375C46.1163 15.6375 46.1169 15.6375 46.1175 15.6375C46.1181 15.6375 46.1188 15.6375 46.1194 15.6375C46.12 15.6375 46.1206 15.6375 46.1212 15.6375C46.1219 15.6375 46.1225 15.6375 46.1231 15.6375C46.1237 15.6375 46.1243 15.6375 46.125 15.6375C46.1256 15.6375 46.1262 15.6375 46.1268 15.6375C46.1274 15.6375 46.1281 15.6375 46.1287 15.6375C46.1293 15.6375 46.1299 15.6375 46.1305 15.6375C46.1312 15.6375 46.1318 15.6375 46.1324 15.6375C46.133 15.6375 46.1337 15.6375 46.1343 15.6375C46.1349 15.6375 46.1355 15.6375 46.1361 15.6375C46.1368 15.6375 46.1374 15.6375 46.138 15.6375C46.1386 15.6375 46.1392 15.6375 46.1399 15.6375C46.1405 15.6375 46.1411 15.6375 46.1417 15.6375C46.1423 15.6375 46.143 15.6375 46.1436 15.6375C46.1442 15.6375 46.1448 15.6375 46.1454 15.6375C46.1461 15.6375 46.1467 15.6375 46.1473 15.6375C46.1479 15.6375 46.1485 15.6375 46.1492 15.6375C46.1498 15.6375 46.1504 15.6375 46.151 15.6375C46.1516 15.6375 46.1522 15.6375 46.1529 15.6375C46.1535 15.6375 46.1541 15.6375 46.1547 15.6375C46.1553 15.6375 46.156 15.6375 46.1566 15.6375C46.1572 15.6375 46.1578 15.6375 46.1584 15.6375C46.1591 15.6375 46.1597 15.6375 46.1603 15.6375C46.1609 15.6375 46.1615 15.6375 46.1622 15.6375C46.1628 15.6375 46.1634 15.6375 46.164 15.6375C46.1646 15.6375 46.1652 15.6375 46.1659 15.6375C46.1665 15.6375 46.1671 15.6375 46.1677 15.6375C46.1683 15.6375 46.169 15.6375 46.1696 15.6375C46.1702 15.6375 46.1708 15.6375 46.1714 15.6375C46.1721 15.6375 46.1727 15.6375 46.1733 15.6375C46.1739 15.6375 46.1745 15.6375 46.1751 15.6375C46.1758 15.6375 46.1764 15.6375 46.177 15.6375C46.1776 15.6375 46.1782 15.6375 46.1789 15.6375C46.1795 15.6375 46.1801 15.6375 46.1807 15.6375C46.1813 15.6375 46.1819 15.6375 46.1826 15.6375C46.1832 15.6375 46.1838 15.6375 46.1844 15.6375C46.185 15.6375 46.1856 15.6375 46.1863 15.6375C46.1869 15.6375 46.1875 15.6375 46.1881 15.6375C46.1887 15.6375 46.1894 15.6375 46.19 15.6375C46.1906 15.6375 46.1912 15.6375 46.1918 15.6375C46.1924 15.6375 46.1931 15.6375 46.1937 15.6375C46.1943 15.6375 46.1949 15.6375 46.1955 15.6375C46.1961 15.6375 46.1968 15.6375 46.1974 15.6375C46.198 15.6375 46.1986 15.6375 46.1992 15.6375C46.1999 15.6375 46.2005 15.6375 46.2011 15.6375C46.2017 15.6375 46.2023 15.6375 46.2029 15.6375C46.2036 15.6375 46.2042 15.6375 46.2048 15.6375C46.2054 15.6375 46.206 15.6375 46.2066 15.6375C46.2073 15.6375 46.2079 15.6375 46.2085 15.6375C46.2091 15.6375 46.2097 15.6375 46.2103 15.6375C46.211 15.6375 46.2116 15.6375 46.2122 15.6375C46.2128 15.6375 46.2134 15.6375 46.214 15.6375C46.2146 15.6375 46.2153 15.6375 46.2159 15.6375C46.2165 15.6375 46.2171 15.6375 46.2177 15.6375C46.2183 15.6375 46.219 15.6375 46.2196 15.6375C46.2202 15.6375 46.2208 15.6375 46.2214 15.6375C46.222 15.6375 46.2227 15.6375 46.2233 15.6375C46.2239 15.6375 46.2245 15.6375 46.2251 15.6375C46.2257 15.6375 46.2264 15.6375 46.227 15.6375C46.2276 15.6375 46.2282 15.6375 46.2288 15.6375C46.2294 15.6375 46.23 15.6375 46.2307 15.6375C46.2313 15.6375 46.2319 15.6375 46.2325 15.6375C46.2331 15.6375 46.2337 15.6375 46.2344 15.6375C46.235 15.6375 46.2356 15.6375 46.2362 15.6375C46.2368 15.6375 46.2374 15.6375 46.238 15.6375C46.2387 15.6375 46.2393 15.6375 46.2399 15.6375C46.2405 15.6375 46.2411 15.6375 46.2417 15.6375C46.2423 15.6375 46.243 15.6375 46.2436 15.6375C46.2442 15.6375 46.2448 15.6375 46.2454 15.6375C46.246 15.6375 46.2467 15.6375 46.2473 15.6375C46.2479 15.6375 46.2485 15.6375 46.2491 15.6375C46.2497 15.6375 46.2503 15.6375 46.2509 15.6375C46.2516 15.6375 46.2522 15.6375 46.2528 15.6375C46.2534 15.6375 46.254 15.6375 46.2546 15.6375C46.2553 15.6375 46.2559 15.6375 46.2565 15.6375C46.2571 15.6375 46.2577 15.6375 46.2583 15.6375C46.2589 15.6375 46.2595 15.6375 46.2602 15.6375C46.2608 15.6375 46.2614 15.6375 46.262 15.6375C46.2626 15.6375 46.2632 15.6375 46.2638 15.6375C46.2645 15.6375 46.2651 15.6375 46.2657 15.6375C46.2663 15.6375 46.2669 15.6375 46.2675 15.6375C46.2681 15.6375 46.2688 15.6375 46.2694 15.6375C46.27 15.6375 46.2706 15.6375 46.2712 15.6375C46.2718 15.6375 46.2724 15.6375 46.273 15.6375C46.2737 15.6375 46.2743 15.6375 46.2749 15.6375C46.2755 15.6375 46.2761 15.6375 46.2767 15.6375C46.2773 15.6375 46.278 15.6375 46.2786 15.6375C46.2792 15.6375 46.2798 15.6375 46.2804 15.6375C46.281 15.6375 46.2816 15.6375 46.2822 15.6375C46.2829 15.6375 46.2835 15.6375 46.2841 15.6375C46.2847 15.6375 46.2853 15.6375 46.2859 15.6375C46.2865 15.6375 46.2871 15.6375 46.2878 15.6375C46.2884 15.6375 46.289 15.6375 46.2896 15.6375C46.2902 15.6375 46.2908 15.6375 46.2914 15.6375C46.292 15.6375 46.2927 15.6375 46.2933 15.6375C46.2939 15.6375 46.2945 15.6375 46.2951 15.6375C46.2957 15.6375 46.2963 15.6375 46.2969 15.6375C46.2976 15.6375 46.2982 15.6375 46.2988 15.6375C46.2994 15.6375 46.3 15.6375 46.3006 15.6375C46.3012 15.6375 46.3018 15.6375 46.3024 15.6375C46.3031 15.6375 46.3037 15.6375 46.3043 15.6375C46.3049 15.6375 46.3055 15.6375 46.3061 15.6375C46.3067 15.6375 46.3073 15.6375 46.3079 15.6375C46.3086 15.6375 46.3092 15.6375 46.3098 15.6375C46.3104 15.6375 46.311 15.6375 46.3116 15.6375C46.3122 15.6375 46.3128 15.6375 46.3134 15.6375C46.3141 15.6375 46.3147 15.6375 46.3153 15.6375C46.3159 15.6375 46.3165 15.6375 46.3171 15.6375C46.3177 15.6375 46.3183 15.6375 46.319 15.6375C46.3196 15.6375 46.3202 15.6375 46.3208 15.6375C46.3214 15.6375 46.322 15.6375 46.3226 15.6375C46.3232 15.6375 46.3238 15.6375 46.3244 15.6375C46.3251 15.6375 46.3257 15.6375 46.3263 15.6375C46.3269 15.6375 46.3275 15.6375 46.3281 15.6375C46.3287 15.6375 46.3293 15.6375 46.3299 15.6375C46.3306 15.6375 46.3312 15.6375 46.3318 15.6375C46.3324 15.6375 46.333 15.6375 46.3336 15.6375C46.3342 15.6375 46.3348 15.6375 46.3354 15.6375C46.336 15.6375 46.3367 15.6375 46.3373 15.6375C46.3379 15.6375 46.3385 15.6375 46.3391 15.6375C46.3397 15.6375 46.3403 15.6375 46.3409 15.6375C46.3415 15.6375 46.3421 15.6375 46.3427 15.6375C46.3434 15.6375 46.344 15.6375 46.3446 15.6375C46.3452 15.6375 46.3458 15.6375 46.3464 15.6375C46.347 15.6375 46.3476 15.6375 46.3482 15.6375C46.3488 15.6375 46.3494 15.6375 46.3501 15.6375C46.3507 15.6375 46.3513 15.6375 46.3519 15.6375C46.3525 15.6375 46.3531 15.6375 46.3537 15.6375C46.3543 15.6375 46.3549 15.6375 46.3555 15.6375C46.3562 15.6375 46.3568 15.6375 46.3574 15.6375C46.358 15.6375 46.3586 15.6375 46.3592 15.6375C46.3598 15.6375 46.3604 15.6375 46.361 15.6375C46.3616 15.6375 46.3622 15.6375 46.3628 15.6375C46.3635 15.6375 46.3641 15.6375 46.3647 15.6375C46.3653 15.6375 46.3659 15.6375 46.3665 15.6375C46.3671 15.6375 46.3677 15.6375 46.3683 15.6375C46.3689 15.6375 46.3695 15.6375 46.3701 15.6375C46.3708 15.6375 46.3714 15.6375 46.372 15.6375C46.3726 15.6375 46.3732 15.6375 46.3738 15.6375C46.3744 15.6375 46.375 15.6375 46.3756 15.6375C46.3762 15.6375 46.3768 15.6375 46.3774 15.6375C46.3781 15.6375 46.3787 15.6375 46.3793 15.6375C46.3799 15.6375 46.3805 15.6375 46.3811 15.6375C46.3817 15.6375 46.3823 15.6375 46.3829 15.6375C46.3835 15.6375 46.3841 15.6375 46.3847 15.6375C46.3853 15.6375 46.3859 15.6375 46.3866 15.6375C46.3872 15.6375 46.3878 15.6375 46.3884 15.6375C46.389 15.6375 46.3896 15.6375 46.3902 15.6375C46.3908 15.6375 46.3914 15.6375 46.392 15.6375C46.3926 15.6375 46.3932 15.6375 46.3938 15.6375C46.3944 15.6375 46.3951 15.6375 46.3957 15.6375C46.3963 15.6375 46.3969 15.6375 46.3975 15.6375C46.3981 15.6375 46.3987 15.6375 46.3993 15.6375C46.3999 15.6375 46.4005 15.6375 46.4011 15.6375C46.4017 15.6375 46.4023 15.6375 46.4029 15.6375C46.4035 15.6375 46.4042 15.6375 46.4048 15.6375C46.4054 15.6375 46.406 15.6375 46.4066 15.6375C46.4072 15.6375 46.4078 15.6375 46.4084 15.6375C46.409 15.6375 46.4096 15.6375 46.4102 15.6375C46.4108 15.6375 46.4114 15.6375 46.412 15.6375C46.4126 15.6375 46.4132 15.6375 46.4139 15.6375C46.4145 15.6375 46.4151 15.6375 46.4157 15.6375C46.4163 15.6375 46.4169 15.6375 46.4175 15.6375C46.4181 15.6375 46.4187 15.6375 46.4193 15.6375C46.4199 15.6375 46.4205 15.6375 46.4211 15.6375C46.4217 15.6375 46.4223 15.6375 46.4229 15.6375C46.4235 15.6375 46.4241 15.6375 46.4248 15.6375C46.4254 15.6375 46.426 15.6375 46.4266 15.6375C46.4272 15.6375 46.4278 15.6375 46.4284 15.6375C46.429 15.6375 46.4296 15.6375 46.4302 15.6375C46.4308 15.6375 46.4314 15.6375 46.432 15.6375C46.4326 15.6375 46.4332 15.6375 46.4338 15.6375C46.4344 15.6375 46.435 15.6375 46.4356 15.6375C46.4362 15.6375 46.4369 15.6375 46.4375 15.6375C46.4381 15.6375 46.4387 15.6375 46.4393 15.6375C46.4399 15.6375 46.4405 15.6375 46.4411 15.6375C46.4417 15.6375 46.4423 15.6375 46.4429 15.6375C46.4435 15.6375 46.4441 15.6375 46.4447 15.6375C46.4453 15.6375 46.4459 15.6375 46.4465 15.6375C46.4471 15.6375 46.4477 15.6375 46.4483 15.6375C46.4489 15.6375 46.4495 15.6375 46.4501 15.6375C46.4508 15.6375 46.4514 15.6375 46.452 15.6375C46.4526 15.6375 46.4532 15.6375 46.4538 15.6375C46.4544 15.6375 46.455 15.6375 46.4556 15.6375C46.4562 15.6375 46.4568 15.6375 46.4574 15.6375C46.458 15.6375 46.4586 15.6375 46.4592 15.6375C46.4598 15.6375 46.4604 15.6375 46.461 15.6375C46.4616 15.6375 46.4622 15.6375 46.4628 15.6375C46.4634 15.6375 46.464 15.6375 46.4646 15.6375C46.4652 15.6375 46.4658 15.6375 46.4664 15.6375C46.467 15.6375 46.4676 15.6375 46.4683 15.6375C46.4689 15.6375 46.4695 15.6375 46.4701 15.6375C46.4707 15.6375 46.4713 15.6375 46.4719 15.6375C46.4725 15.6375 46.4731 15.6375 46.4737 15.6375C46.4743 15.6375 46.4749 15.6375 46.4755 15.6375C46.4761 15.6375 46.4767 15.6375 46.4773 15.6375C46.4779 15.6375 46.4785 15.6375 46.4791 15.6375C46.4797 15.6375 46.4803 15.6375 46.4809 15.6375C46.4815 15.6375 46.4821 15.6375 46.4827 15.6375C46.4833 15.6375 46.4839 15.6375 46.4845 15.6375C46.4851 15.6375 46.4857 15.6375 46.4863 15.6375C46.4869 15.6375 46.4875 15.6375 46.4881 15.6375C46.4887 15.6375 46.4893 15.6375 46.4899 15.6375C46.4905 15.6375 46.4911 15.6375 46.4917 15.6375C46.4923 15.6375 46.4929 15.6375 46.4935 15.6375C46.4942 15.6375 46.4948 15.6375 46.4954 15.6375C46.496 15.6375 46.4966 15.6375 46.4972 15.6375C46.4978 15.6375 46.4984 15.6375 46.499 15.6375C46.4996 15.6375 46.5002 15.6375 46.5008 15.6375C46.5014 15.6375 46.502 15.6375 46.5026 15.6375C46.5032 15.6375 46.5038 15.6375 46.5044 15.6375C46.505 15.6375 46.5056 15.6375 46.5062 15.6375C46.5068 15.6375 46.5074 15.6375 46.508 15.6375C46.5086 15.6375 46.5092 15.6375 46.5098 15.6375C46.5104 15.6375 46.511 15.6375 46.5116 15.6375C46.5122 15.6375 46.5128 15.6375 46.5134 15.6375C46.514 15.6375 46.5146 15.6375 46.5152 15.6375C46.5158 15.6375 46.5164 15.6375 46.517 15.6375C46.5176 15.6375 46.5182 15.6375 46.5188 15.6375C46.5194 15.6375 46.52 15.6375 46.5206 15.6375C46.5212 15.6375 46.5218 15.6375 46.5224 15.6375C46.523 15.6375 46.5236 15.6375 46.5242 15.6375C46.5248 15.6375 46.5254 15.6375 46.526 15.6375C46.5266 15.6375 46.5272 15.6375 46.5278 15.6375C46.5284 15.6375 46.529 15.6375 46.5296 15.6375C46.5302 15.6375 46.5308 15.6375 46.5314 15.6375C46.532 15.6375 46.5326 15.6375 46.5332 15.6375C46.5338 15.6375 46.5344 15.6375 46.535 15.6375C46.5356 15.6375 46.5362 15.6375 46.5368 15.6375C46.5374 15.6375 46.538 15.6375 46.5386 15.6375C46.5392 15.6375 46.5398 15.6375 46.5404 15.6375C46.541 15.6375 46.5416 15.6375 46.5422 15.6375C46.5428 15.6375 46.5434 15.6375 46.544 15.6375C46.5446 15.6375 46.5452 15.6375 46.5458 15.6375C46.5464 15.6375 46.547 15.6375 46.5476 15.6375C46.5482 15.6375 46.5488 15.6375 46.5494 15.6375C46.55 15.6375 46.5506 15.6375 46.5512 15.6375C46.5518 15.6375 46.5524 15.6375 46.553 15.6375C46.5536 15.6375 46.5542 15.6375 46.5548 15.6375C46.5554 15.6375 46.556 15.6375 46.5565 15.6375C46.5571 15.6375 46.5577 15.6375 46.5583 15.6375C46.5589 15.6375 46.5595 15.6375 46.5601 15.6375C46.5607 15.6375 46.5613 15.6375 46.5619 15.6375C46.5625 15.6375 46.5631 15.6375 46.5637 15.6375C46.5643 15.6375 46.5649 15.6375 46.5655 15.6375C46.5661 15.6375 46.5667 15.6375 46.5673 15.6375C46.5679 15.6375 46.5685 15.6375 46.5691 15.6375C46.5697 15.6375 46.5703 15.6375 46.5709 15.6375C46.5715 15.6375 46.5721 15.6375 46.5727 15.6375C46.5733 15.6375 46.5739 15.6375 46.5745 15.6375C46.5751 15.6375 46.5757 15.6375 46.5763 15.6375C46.5769 15.6375 46.5775 15.6375 46.5781 15.6375C46.5787 15.6375 46.5793 15.6375 46.5799 15.6375C46.5805 15.6375 46.5811 15.6375 46.5817 15.6375C46.5822 15.6375 46.5828 15.6375 46.5834 15.6375C46.584 15.6375 46.5846 15.6375 46.5852 15.6375C46.5858 15.6375 46.5864 15.6375 46.587 15.6375C46.5876 15.6375 46.5882 15.6375 46.5888 15.6375C46.5894 15.6375 46.59 15.6375 46.5906 15.6375C46.5912 15.6375 46.5918 15.6375 46.5924 15.6375C46.593 15.6375 46.5936 15.6375 46.5942 15.6375C46.5948 15.6375 46.5954 15.6375 46.596 15.6375C46.5966 15.6375 46.5972 15.6375 46.5978 15.6375C46.5984 15.6375 46.599 15.6375 46.5995 15.6375C46.6001 15.6375 46.6007 15.6375 46.6013 15.6375C46.6019 15.6375 46.6025 15.6375 46.6031 15.6375C46.6037 15.6375 46.6043 15.6375 46.6049 15.6375C46.6055 15.6375 46.6061 15.6375 46.6067 15.6375C46.6073 15.6375 46.6079 15.6375 46.6085 15.6375C46.6091 15.6375 46.6097 15.6375 46.6103 15.6375C46.6109 15.6375 46.6115 15.6375 46.6121 15.6375C46.6127 15.6375 46.6132 15.6375 46.6138 15.6375C46.6144 15.6375 46.615 15.6375 46.6156 15.6375C46.6162 15.6375 46.6168 15.6375 46.6174 15.6375C46.618 15.6375 46.6186 15.6375 46.6192 15.6375C46.6198 15.6375 46.6204 15.6375 46.621 15.6375C46.6216 15.6375 46.6222 15.6375 46.6228 15.6375C46.6234 15.6375 46.624 15.6375 46.6246 15.6375C46.6251 15.6375 46.6257 15.6375 46.6263 15.6375C46.6269 15.6375 46.6275 15.6375 46.6281 15.6375C46.6287 15.6375 46.6293 15.6375 46.6299 15.6375C46.6305 15.6375 46.6311 15.6375 46.6317 15.6375C46.6323 15.6375 46.6329 15.6375 46.6335 15.6375C46.6341 15.6375 46.6347 15.6375 46.6353 15.6375C46.6358 15.6375 46.6364 15.6375 46.637 15.6375C46.6376 15.6375 46.6382 15.6375 46.6388 15.6375C46.6394 15.6375 46.64 15.6375 46.6406 15.6375C46.6412 15.6375 46.6418 15.6375 46.6424 15.6375C46.643 15.6375 46.6436 15.6375 46.6442 15.6375C46.6448 15.6375 46.6453 15.6375 46.6459 15.6375C46.6465 15.6375 46.6471 15.6375 46.6477 15.6375C46.6483 15.6375 46.6489 15.6375 46.6495 15.6375C46.6501 15.6375 46.6507 15.6375 46.6513 15.6375C46.6519 15.6375 46.6525 15.6375 46.6531 15.6375C46.6537 15.6375 46.6543 15.6375 46.6548 15.6375C46.6554 15.6375 46.656 15.6375 46.6566 15.6375C46.6572 15.6375 46.6578 15.6375 46.6584 15.6375C46.659 15.6375 46.6596 15.6375 46.6602 15.6375C46.6608 15.6375 46.6614 15.6375 46.662 15.6375C46.6626 15.6375 46.6631 15.6375 46.6637 15.6375C46.6643 15.6375 46.6649 15.6375 46.6655 15.6375C46.6661 15.6375 46.6667 15.6375 46.6673 15.6375C46.6679 15.6375 46.6685 15.6375 46.6691 15.6375C46.6697 15.6375 46.6703 15.6375 46.6708 15.6375C46.6714 15.6375 46.672 15.6375 46.6726 15.6375C46.6732 15.6375 46.6738 15.6375 46.6744 15.6375C46.675 15.6375 46.6756 15.6375 46.6762 15.6375C46.6768 15.6375 46.6774 15.6375 46.6779 15.6375C46.6785 15.6375 46.6791 15.6375 46.6797 15.6375C46.6803 15.6375 46.6809 15.6375 46.6815 15.6375C46.6821 15.6375 46.6827 15.6375 46.6833 15.6375C46.6839 15.6375 46.6845 15.6375 46.685 15.6375C46.6856 15.6375 46.6862 15.6375 46.6868 15.6375C46.6874 15.6375 46.688 15.6375 46.6886 15.6375C46.6892 15.6375 46.6898 15.6375 46.6904 15.6375C46.691 15.6375 46.6916 15.6375 46.6921 15.6375C46.6927 15.6375 46.6933 15.6375 46.6939 15.6375C46.6945 15.6375 46.6951 15.6375 46.6957 15.6375C46.6963 15.6375 46.6969 15.6375 46.6975 15.6375C46.6981 15.6375 46.6986 15.6375 46.6992 15.6375C46.6998 15.6375 46.7004 15.6375 46.701 15.6375C46.7016 15.6375 46.7022 15.6375 46.7028 15.6375C46.7034 15.6375 46.704 15.6375 46.7046 15.6375C46.7051 15.6375 46.7057 15.6375 46.7063 15.6375C46.7069 15.6375 46.7075 15.6375 46.7081 15.6375C46.7087 15.6375 46.7093 15.6375 46.7099 15.6375C46.7105 15.6375 46.711 15.6375 46.7116 15.6375C46.7122 15.6375 46.7128 15.6375 46.7134 15.6375C46.714 15.6375 46.7146 15.6375 46.7152 15.6375C46.7158 15.6375 46.7164 15.6375 46.7169 15.6375C46.7175 15.6375 46.7181 15.6375 46.7187 15.6375C46.7193 15.6375 46.7199 15.6375 46.7205 15.6375C46.7211 15.6375 46.7217 15.6375 46.7222 15.6375C46.7228 15.6375 46.7234 15.6375 46.724 15.6375C46.7246 15.6375 46.7252 15.6375 46.7258 15.6375C46.7264 15.6375 46.727 15.6375 46.7276 15.6375C46.7281 15.6375 46.7287 15.6375 46.7293 15.6375C46.7299 15.6375 46.7305 15.6375 46.7311 15.6375C46.7317 15.6375 46.7323 15.6375 46.7329 15.6375C46.7334 15.6375 46.734 15.6375 46.7346 15.6375C46.7352 15.6375 46.7358 15.6375 46.7364 15.6375C46.737 15.6375 46.7376 15.6375 46.7382 15.6375C46.7387 15.6375 46.7393 15.6375 46.7399 15.6375C46.7405 15.6375 46.7411 15.6375 46.7417 15.6375C46.7423 15.6375 46.7429 15.6375 46.7435 15.6375C46.744 15.6375 46.7446 15.6375 46.7452 15.6375C46.7458 15.6375 46.7464 15.6375 46.747 15.6375C46.7476 15.6375 46.7482 15.6375 46.7487 15.6375C46.7493 15.6375 46.7499 15.6375 46.7505 15.6375C46.7511 15.6375 46.7517 15.6375 46.7523 15.6375C46.7529 15.6375 46.7534 15.6375 46.754 15.6375C46.7546 15.6375 46.7552 15.6375 46.7558 15.6375C46.7564 15.6375 46.757 15.6375 46.7576 15.6375C46.7581 15.6375 46.7587 15.6375 46.7593 15.6375C46.7599 15.6375 46.7605 15.6375 46.7611 15.6375C46.7617 15.6375 46.7623 15.6375 46.7628 15.6375C46.7634 15.6375 46.764 15.6375 46.7646 15.6375C46.7652 15.6375 46.7658 15.6375 46.7664 15.6375C46.767 15.6375 46.7675 15.6375 46.7681 15.6375C46.7687 15.6375 46.7693 15.6375 46.7699 15.6375C46.7705 15.6375 46.7711 15.6375 46.7717 15.6375C46.7722 15.6375 46.7728 15.6375 46.7734 15.6375C46.774 15.6375 46.7746 15.6375 46.7752 15.6375C46.7758 15.6375 46.7763 15.6375 46.7769 15.6375C46.7775 15.6375 46.7781 15.6375 46.7787 15.6375C46.7793 15.6375 46.7799 15.6375 46.7804 15.6375C46.781 15.6375 46.7816 15.6375 46.7822 15.6375C46.7828 15.6375 46.7834 15.6375 46.784 15.6375C46.7846 15.6375 46.7851 15.6375 46.7857 15.6375C46.7863 15.6375 46.7869 15.6375 46.7875 15.6375V13.6375ZM45.85 13.6375C45.6058 13.6375 45.3608 13.6172 45.1144 13.5761L44.7856 15.5489C45.1392 15.6078 45.4941 15.6375 45.85 15.6375V13.6375ZM43.9625 14.4045C43.7576 15.6853 43.5924 17.1118 43.4657 18.6821L45.4592 18.8429C45.5826 17.3133 45.7423 15.9398 45.9374 14.7205L43.9625 14.4045ZM43.4646 18.6971C43.3629 20.2486 43.3125 21.996 43.3125 23.9375H45.3125C45.3125 22.029 45.3621 20.3264 45.4603 18.8279L43.4646 18.6971ZM43.3125 23.9375V36.0875H45.3125V23.9375H43.3125ZM44.3125 37.0875H49.3375V35.0875H44.3125V37.0875ZM48.3919 35.762L47.6044 38.0495L49.4955 38.7005L50.283 36.413L48.3919 35.762ZM48.55 37.375H44.3125V39.375H48.55V37.375ZM43.3125 38.375V47.6H45.3125V38.375H43.3125ZM43.3125 47.6C43.3125 49.6927 43.2876 51.5192 43.238 53.0808L45.237 53.1442C45.2874 51.5559 45.3125 49.7074 45.3125 47.6H43.3125ZM43.238 53.0803C43.1892 54.592 43.0556 55.9285 42.8414 57.0944L44.8085 57.4557C45.0444 56.1715 45.1857 54.733 45.237 53.1448L43.238 53.0803ZM42.8421 57.0907C42.6303 58.2205 42.3156 59.2277 41.9045 60.1185L43.7204 60.9566C44.2093 59.8973 44.5697 58.7295 44.8079 57.4593L42.8421 57.0907ZM41.9087 60.1094C41.5031 60.9657 40.9314 61.8284 40.1811 62.6959L41.6938 64.0042C42.5436 63.0217 43.2218 62.0093 43.7162 60.9656L41.9087 60.1094ZM40.1842 62.6924C38.9353 64.1229 37.1651 65.3303 34.8221 66.2867L35.5779 68.1384C38.1349 67.0947 40.1897 65.7271 41.6908 64.0077L40.1842 62.6924ZM34.8221 66.2867C32.524 67.2247 29.685 67.7125 26.275 67.7125V69.7125C29.865 69.7125 32.976 69.2004 35.5779 68.1384L34.8221 66.2867ZM26.275 67.7125C24.2193 67.7125 22.2688 67.4259 20.4191 66.8567L19.8309 68.7683C21.8812 69.3992 24.0307 69.7125 26.275 69.7125V67.7125ZM20.4191 66.8567C18.5625 66.2855 16.9521 65.4945 15.5765 64.4919L14.3985 66.1082C15.9728 67.2556 17.7875 68.1395 19.8309 68.7683L20.4191 66.8567ZM15.5765 64.4919C14.2073 63.494 13.1281 62.3083 12.3263 60.9336L10.5987 61.9414C11.5468 63.5668 12.8177 64.956 14.3985 66.1082L15.5765 64.4919ZM12.3263 60.9336C11.5451 59.5945 11.15 58.1074 11.15 56.45H9.14998C9.14998 58.4427 9.62988 60.2805 10.5987 61.9414L12.3263 60.9336ZM11.15 56.45C11.15 55.2051 11.3458 54.1202 11.7174 53.1802L9.85752 52.4449C9.37917 53.6548 9.14998 54.9949 9.14998 56.45H11.15ZM11.7099 53.1987C12.1234 52.211 12.6463 51.3505 13.275 50.6095L11.75 49.3155C10.9787 50.2246 10.3516 51.264 9.86504 52.4264L11.7099 53.1987ZM13.2844 50.5982C13.9349 49.8083 14.6366 49.1428 15.3882 48.5963L14.2118 46.9788C13.3133 47.6322 12.49 48.4167 11.7406 49.3268L13.2844 50.5982ZM15.3767 48.6045C16.192 48.029 16.9738 47.5561 17.7222 47.1819L16.8278 45.3931C15.9762 45.8189 15.108 46.3461 14.2233 46.9706L15.3767 48.6045ZM17.7222 47.1819C18.4942 46.796 19.1782 46.5023 19.7771 46.295L19.1229 44.405C18.4217 44.6477 17.6558 44.9791 16.8278 45.3931L17.7222 47.1819ZM19.7771 46.295C20.4209 46.0721 20.8668 45.9368 21.1373 45.8744L20.6876 43.9256C20.3082 44.0132 19.7791 44.1779 19.1229 44.405L19.7771 46.295ZM20.0137 45.3384L20.7637 46.8759L22.5613 45.9991L21.8113 44.4616L20.0137 45.3384ZM21.1999 45.5509C20.5691 45.8801 19.8767 46.3214 19.126 46.8651L20.299 48.485C20.9982 47.9786 21.6059 47.595 22.125 47.3241L21.1999 45.5509ZM19.1312 46.8613C18.3406 47.426 17.6107 48.147 16.937 49.0094L18.513 50.2407C19.0893 49.5031 19.6844 48.924 20.2937 48.4888L19.1312 46.8613ZM16.9466 48.9973C16.2428 49.8699 15.6695 50.9174 15.2145 52.1216L17.0855 52.8284C17.4805 51.7827 17.9571 50.9301 18.5034 50.2528L16.9466 48.9973ZM15.2145 52.1216C14.7371 53.3853 14.5125 54.8353 14.5125 56.45H16.5125C16.5125 55.0148 16.7128 53.8147 17.0855 52.8284L15.2145 52.1216ZM14.5125 56.45C14.5125 58.1888 14.8071 59.7866 15.4165 61.2272L17.2584 60.4479C16.7679 59.2884 16.5125 57.9612 16.5125 56.45H14.5125ZM15.4193 61.2336C16.022 62.631 16.8641 63.8355 17.9467 64.8348L19.3033 63.3652C18.4358 62.5645 17.7529 61.5941 17.2557 60.4414L15.4193 61.2336ZM17.9665 64.8526C19.0694 65.8176 20.3574 66.5544 21.8181 67.0683L22.4819 65.1817C21.2426 64.7457 20.1806 64.1324 19.2835 63.3474L17.9665 64.8526ZM21.8389 67.0754C23.3259 67.562 24.9322 67.8 26.65 67.8V65.8C25.1178 65.8 23.7241 65.588 22.461 65.1746L21.8389 67.0754ZM26.65 67.8C28.5662 67.8 30.3374 67.5375 31.9537 66.9987L31.3213 65.1013C29.9376 65.5626 28.3838 65.8 26.65 65.8V67.8ZM31.949 67.0002C33.6361 66.4471 35.0833 65.5154 36.2753 64.2125L34.7997 62.8625C33.8417 63.9096 32.6889 64.6529 31.3259 65.0998L31.949 67.0002ZM36.2753 64.2125C37.4742 62.902 38.374 61.1972 39.0058 59.1441L37.0942 58.5559C36.5259 60.4028 35.7507 61.823 34.7997 62.8625L36.2753 64.2125ZM39.0058 59.1441C39.6445 57.068 39.95 54.5364 39.95 51.575H37.95C37.95 54.4137 37.6554 56.732 37.0942 58.5559L39.0058 59.1441ZM39.95 51.575V38.375H37.95V51.575H39.95ZM38.95 37.375H31.675V39.375H38.95V37.375ZM32.6252 38.6866L33.3752 36.3991L31.4748 35.776L30.7248 38.0635L32.6252 38.6866ZM32.425 37.0875H38.95V35.0875H32.425V37.0875ZM51.25 4.90002C49.8552 4.90002 48.5906 5.41953 47.4818 6.38248L48.7932 7.89255C49.5843 7.2055 50.3948 6.90002 51.25 6.90002V4.90002ZM47.4933 6.3726C46.3339 7.34898 45.4717 8.93246 44.8227 10.9573L46.7273 11.5677C47.3283 9.69258 48.0411 8.52605 48.7816 7.90243L47.4933 6.3726ZM45.6157 12.2498C46.408 12.3775 47.1769 12.4801 47.9221 12.5572L48.1279 10.5678C47.4231 10.4949 46.6919 10.3975 45.9342 10.2753L45.6157 12.2498ZM47.9221 12.5572C48.6772 12.6353 49.3993 12.675 50.0875 12.675V10.675C49.4757 10.675 48.8227 10.6397 48.1279 10.5678L47.9221 12.5572ZM50.0875 12.675C50.8435 12.675 51.5424 12.5777 52.1582 12.3509L51.4668 10.4742C51.1325 10.5973 50.6815 10.675 50.0875 10.675V12.675ZM52.1839 12.341C52.777 12.1037 53.3018 11.7874 53.7196 11.3696L52.3054 9.95541C52.1232 10.1376 51.8479 10.3213 51.4411 10.484L52.1839 12.341ZM53.7196 11.3696C54.1104 10.9788 54.4131 10.5285 54.616 10.0214L52.759 9.27863C52.6618 9.52158 52.5145 9.74625 52.3054 9.95541L53.7196 11.3696ZM54.616 10.0214C54.8095 9.53746 54.9125 9.03675 54.9125 8.52502H52.9125C52.9125 8.76328 52.8654 9.01258 52.759 9.27863L54.616 10.0214ZM54.9125 8.52502C54.9125 7.54231 54.5624 6.67319 53.8696 5.98041L52.4554 7.39462C52.7626 7.70184 52.9125 8.05772 52.9125 8.52502H54.9125ZM53.8866 5.99786C53.1838 5.25993 52.2776 4.90002 51.25 4.90002V6.90002C51.7724 6.90002 52.1411 7.06511 52.4383 7.37717L53.8866 5.99786Z" fill="#2E2E2E"/>
</g>
<defs>
<filter id="filter0_d" x="0.162476" y="0.837509" width="61.075" height="74.875" filterUnits="userSpaceOnUse" color-interpolation-filters="sRGB">
<feFlood flood-opacity="0" result="BackgroundImageFix"/>
<feColorMatrix in="SourceAlpha" type="matrix" values="0 0 0 0 0 0 0 0 0 0 0 0 0 0 0 0 0 0 127 0"/>
<feOffset dy="2"/>
<feGaussianBlur stdDeviation="2"/>
<feColorMatrix type="matrix" values="0 0 0 0 0.180392 0 0 0 0 0.180392 0 0 0 0 0.180392 0 0 0 0.4 0"/>
<feBlend mode="normal" in2="BackgroundImageFix" result="effect1_dropShadow"/>
<feBlend mode="normal" in="SourceGraphic" in2="effect1_dropShadow" result="shape"/>
</filter>
</defs>
</svg>
